<?xml version="1.0" encoding="UTF-8" standalone="no"?>
<svg
   id="master-artboard"
   viewBox="0 0 804.84281 668.17137"
   version="1.1"
   x="0px"
   y="0px"
   width="804.84283"
   height="668.17139"
   sodipodi:docname="crimes.svg"
   inkscape:version="1.1.1 (3bf5ae0d25, 2021-09-20)"
   xmlns:inkscape="http://www.inkscape.org/namespaces/inkscape"
   xmlns:sodipodi="http://sodipodi.sourceforge.net/DTD/sodipodi-0.dtd"
   xmlns="http://www.w3.org/2000/svg"
   xmlns:svg="http://www.w3.org/2000/svg">
  <defs
     id="defs573" />
  <sodipodi:namedview
     id="namedview571"
     pagecolor="#505050"
     bordercolor="#eeeeee"
     borderopacity="1"
     inkscape:pageshadow="0"
     inkscape:pageopacity="0"
     inkscape:pagecheckerboard="0"
     showgrid="false"
     inkscape:zoom="0.72493164"
     inkscape:cx="404.17604"
     inkscape:cy="112.42439"
     inkscape:window-width="1920"
     inkscape:window-height="1046"
     inkscape:window-x="0"
     inkscape:window-y="34"
     inkscape:window-maximized="1"
     inkscape:current-layer="g568"
     fit-margin-top="0"
     fit-margin-left="0"
     fit-margin-right="0"
     fit-margin-bottom="0" />
  <g
     transform="matrix(0.60742855,0,0,0.60742855,-21.259999,-4.8718348e-6)"
     id="g568">
    <path
       class="st1"
       d="M 1328.8,920 H 111.2 c -5.5,0 -10,4.5 -10,10 v 40 15 c 0,5.5 4.5,10 10,10 h 140 v 105 h 75 V 995 h 787.5 v 105 h 75 V 995 h 140 c 5.5,0 10,-4.5 10,-10 v -15 -40 c 0.1,-5.5 -4.4,-10 -9.9,-10 z"
       style="fill:#565656;fill-opacity:1"
       id="path4" />
    <g
       id="g50">
      <path
         class="st1"
         d="m 418.2,609.3 c -37.9,0 -68.8,-30.9 -68.8,-68.8 0,-37.9 30.9,-68.8 68.8,-68.8 37.9,0 68.8,30.9 68.8,68.8 0,37.9 -30.9,68.8 -68.8,68.8 z"
         style="fill:#565656;fill-opacity:1"
         id="path6" />
      <path
         class="st2"
         d="m 408.2,599.3 c -37.9,0 -68.8,-30.9 -68.8,-68.8 0,-37.9 30.9,-68.8 68.8,-68.8 37.9,0 68.8,30.9 68.8,68.8 0,37.9 -30.9,68.8 -68.8,68.8 z"
         style="fill:#ffc42b"
         id="path8" />
      <path
         d="m 467.00001,530.5 a 58.799999,58.799999 0 0 1 -58.8,58.8 58.799999,58.799999 0 0 1 -58.8,-58.8 58.799999,58.799999 0 0 1 58.8,-58.8 58.799999,58.799999 0 0 1 58.8,58.8 z"
         transform="matrix(0.8507,-0.5257,0.5257,0.8507,-217.9363,293.8315)"
         class="st3"
         style="fill:#fcdf42"
         id="path10" />
      <path
         d="m 447.00001,530.5 a 38.799999,38.799999 0 0 1 -38.8,38.8 38.799999,38.799999 0 0 1 -38.8,-38.8 38.799999,38.799999 0 0 1 38.8,-38.8 38.799999,38.799999 0 0 1 38.8,38.8 z"
         transform="matrix(0.7071,-0.7071,0.7071,0.7071,-255.5618,444.0182)"
         class="st2"
         style="fill:#ffc42b"
         id="path12" />
      <g
         id="g16">
        <path
           class="st2"
           d="m 467,533 h -20 c -1.4,0 -2.5,-1.1 -2.5,-2.5 0,-1.4 1.1,-2.5 2.5,-2.5 h 20 c 1.4,0 2.5,1.1 2.5,2.5 0,1.4 -1.1,2.5 -2.5,2.5 z"
           style="fill:#ffc42b"
           id="path14" />
      </g>
      <g
         id="g20">
        <path
           class="st2"
           d="m 369.4,533 h -20 c -1.4,0 -2.5,-1.1 -2.5,-2.5 0,-1.4 1.1,-2.5 2.5,-2.5 h 20 c 1.4,0 2.5,1.1 2.5,2.5 0,1.4 -1.1,2.5 -2.5,2.5 z"
           style="fill:#ffc42b"
           id="path18" />
      </g>
      <g
         id="g24">
        <path
           class="st2"
           d="m 408.2,494.2 c -1.4,0 -2.5,-1.1 -2.5,-2.5 v -20 c 0,-1.4 1.1,-2.5 2.5,-2.5 1.4,0 2.5,1.1 2.5,2.5 v 20 c 0,1.4 -1.1,2.5 -2.5,2.5 z"
           style="fill:#ffc42b"
           id="path22" />
      </g>
      <g
         id="g28">
        <path
           class="st2"
           d="m 408.2,591.8 c -1.4,0 -2.5,-1.1 -2.5,-2.5 v -20 c 0,-1.4 1.1,-2.5 2.5,-2.5 1.4,0 2.5,1.1 2.5,2.5 v 20 c 0,1.4 -1.1,2.5 -2.5,2.5 z"
           style="fill:#ffc42b"
           id="path26" />
      </g>
      <g
         id="g32">
        <path
           class="st2"
           d="m 449.8,574.6 c -0.6,0 -1.3,-0.2 -1.8,-0.7 l -14.1,-14.1 c -1,-1 -1,-2.6 0,-3.5 1,-1 2.6,-1 3.5,0 l 14.1,14.1 c 1,1 1,2.6 0,3.5 -0.4,0.4 -1.1,0.7 -1.7,0.7 z"
           style="fill:#ffc42b"
           id="path30" />
      </g>
      <g
         id="g36">
        <path
           class="st2"
           d="m 380.8,505.6 c -0.6,0 -1.3,-0.2 -1.8,-0.7 l -14.1,-14.1 c -1,-1 -1,-2.6 0,-3.5 1,-1 2.6,-1 3.5,0 l 14.1,14.1 c 1,1 1,2.6 0,3.5 -0.5,0.4 -1.1,0.7 -1.7,0.7 z"
           style="fill:#ffc42b"
           id="path34" />
      </g>
      <g
         id="g40">
        <path
           class="st2"
           d="m 435.6,505.6 c -0.6,0 -1.3,-0.2 -1.8,-0.7 -1,-1 -1,-2.6 0,-3.5 l 14.1,-14.1 c 1,-1 2.6,-1 3.5,0 1,1 1,2.6 0,3.5 l -14.1,14.1 c -0.4,0.4 -1,0.7 -1.7,0.7 z"
           style="fill:#ffc42b"
           id="path38" />
      </g>
      <g
         id="g44">
        <path
           class="st2"
           d="m 366.6,574.6 c -0.6,0 -1.3,-0.2 -1.8,-0.7 -1,-1 -1,-2.6 0,-3.5 l 14.1,-14.1 c 1,-1 2.6,-1 3.5,0 1,1 1,2.6 0,3.5 l -14.1,14.1 c -0.4,0.4 -1,0.7 -1.7,0.7 z"
           style="fill:#ffc42b"
           id="path42" />
      </g>
      <g
         id="g48">
        <path
           class="st3"
           d="m 416.3,539.1 c 0,4.9 -1.9,7.7 -5.7,8.4 v 5.2 h -3.2 v -5 c -2.3,-0.2 -4.1,-1 -5.3,-2.5 -1.2,-1.5 -1.8,-4 -1.8,-7.4 v -2.2 h 5.6 v 2.7 c 0,3 0.8,4.5 2.3,4.5 0.8,0 1.4,-0.3 1.8,-0.8 0.4,-0.5 0.5,-1.4 0.5,-2.7 0,-2.3 -1,-4.3 -3.1,-6.3 -0.1,-0.1 -0.5,-0.5 -1.5,-1.3 -0.9,-0.8 -1.4,-1.3 -1.6,-1.4 -2.8,-2.5 -4.2,-5.5 -4.2,-8.9 0,-5.2 2.4,-8 7.1,-8.3 v -5 h 3.2 v 5.2 c 1.5,0.3 2.6,1 3.5,2 1.2,1.5 1.8,4 1.8,7.4 0,0 0,0.1 0,0.1 v 1.8 h -5.3 v -2.2 c 0,-1.5 -0.2,-2.7 -0.5,-3.4 -0.3,-0.7 -0.9,-1.1 -1.7,-1.1 -0.8,0 -1.4,0.2 -1.8,0.7 -0.4,0.5 -0.6,1.3 -0.6,2.4 0,1.8 0.8,3.4 2.4,5 l 3.2,2.9 c 3.3,3.2 4.9,6.5 4.9,10.2 z"
           style="fill:#fcdf42"
           id="path46" />
      </g>
    </g>
    <path
       class="st1"
       d="M 1032.5,885 H 978 c 8.3,0 15,-6.7 15,-15 V 575 c 0,-8.3 -6.7,-15 -15,-15 H 462 c -8.3,0 -15,6.7 -15,15 v 295 c 0,8.3 6.7,15 15,15 h -54.5 c -6.9,0 -12.5,5.6 -12.5,12.5 0,6.9 5.6,12.5 12.5,12.5 h 625 c 6.9,0 12.5,-5.6 12.5,-12.5 0,-6.9 -5.6,-12.5 -12.5,-12.5 z"
       style="fill:#565656;fill-opacity:1"
       id="path52" />
    <path
       class="st4"
       d="M 958,875 H 442 c -8.3,0 -15,-6.7 -15,-15 V 565 c 0,-8.3 6.7,-15 15,-15 h 516 c 8.3,0 15,6.7 15,15 v 295 c 0,8.3 -6.7,15 -15,15 z"
       style="fill:#373f4a"
       id="path54" />
    <path
       d="m 567.5,469.5 h 265 v 486 h -265 z"
       transform="rotate(90,700,712.5)"
       class="st5"
       style="fill:#1e90ff;fill-opacity:1"
       id="path56" />
    <path
       class="st6"
       d="m 475.2,801.9 38,-142 c 1.4,-5.3 6.9,-8.5 12.2,-7.1 l 225.9,60.5 c 5.3,1.4 8.5,6.9 7.1,12.2 l -38,142 c -1.4,5.3 -6.9,8.5 -12.2,7.1 L 482.3,814.1 c -5.4,-1.4 -8.5,-6.9 -7.1,-12.2 z"
       style="fill:#149ac4"
       id="path58" />
    <path
       d="m 943,673 -24.90002,-93 h -198.5 L 682.29999,637 723.40002,790.79999 943,731.90002 Z"
       class="st6"
       style="fill:#149ac4"
       id="path60" />
    <path
       class="st1"
       d="m 1249.9,910 c -37.9,0 -68.8,-30.9 -68.8,-68.8 0,-37.9 30.9,-68.8 68.8,-68.8 37.9,0 68.8,30.9 68.8,68.8 0,37.9 -30.8,68.8 -68.8,68.8 z"
       style="fill:#565656;fill-opacity:1"
       id="path62" />
    <g
       id="g166">
      <path
         class="st1"
         d="M 197,616.3 H 85 c -5.5,0 -10,4.5 -10,10 v 238.3 h 274 c 5.5,0 10,-4.5 10,-10 V 656.3 c 0,-5.5 -4.5,-10 -10,-10 H 217 Z"
         style="fill:#565656;fill-opacity:1"
         id="path64" />
      <path
         class="st7"
         d="M 177,596.3 H 65 c -5.5,0 -10,4.5 -10,10 v 238.3 h 274 c 5.5,0 10,-4.5 10,-10 V 636.3 c 0,-5.5 -4.5,-10 -10,-10 H 197 Z"
         style="fill:#f9e491"
         id="path66" />
      <path
         class="st8"
         d="M 157,616.3 H 45 c -5.5,0 -10,4.5 -10,10 v 208.3 c 0,5.5 4.5,10 10,10 h 283.8 c 5.5,0 10,-4.5 10,-10 V 656.3 c 0,-5.5 -4.5,-10 -10,-10 H 177 Z"
         style="fill:#fef2b7"
         id="path68" />
      <path
         d="M 35.099998,702.09998 H 338.89999 v 56.59999 H 35.099998 Z"
         class="st9"
         style="fill:#f99300"
         id="path70" />
      <g
         id="g162">
        <g
           id="g88">
          <g
             id="g74">
            <path
               class="st10"
               d="m 81.2,750 c -1.4,0 -2.5,-1.1 -2.5,-2.5 v -34.3 c 0,-1.4 1.1,-2.5 2.5,-2.5 1.4,0 2.5,1.1 2.5,2.5 v 34.3 c 0,1.4 -1.2,2.5 -2.5,2.5 z"
               style="fill:#ffffff"
               id="path72" />
          </g>
          <g
             id="g78">
            <path
               class="st10"
               d="M 98.3,732.9 H 64 c -1.4,0 -2.5,-1.1 -2.5,-2.5 0,-1.4 1.1,-2.5 2.5,-2.5 h 34.3 c 1.4,0 2.5,1.1 2.5,2.5 0,1.4 -1.1,2.5 -2.5,2.5 z"
               style="fill:#ffffff"
               id="path76" />
          </g>
          <g
             id="g82">
            <path
               class="st10"
               d="m 69,745 c -0.6,0 -1.3,-0.2 -1.8,-0.7 -1,-1 -1,-2.6 0,-3.5 l 24.3,-24.3 c 1,-1 2.6,-1 3.5,0 1,1 1,2.6 0,3.5 l -24.3,24.3 c -0.4,0.5 -1,0.7 -1.7,0.7 z"
               style="fill:#ffffff"
               id="path80" />
          </g>
          <g
             id="g86">
            <path
               class="st10"
               d="m 93.3,745 c -0.6,0 -1.3,-0.2 -1.8,-0.7 L 67.3,720 c -1,-1 -1,-2.6 0,-3.5 1,-1 2.6,-1 3.5,0 l 24.3,24.3 c 1,1 1,2.6 0,3.5 -0.5,0.5 -1.2,0.7 -1.8,0.7 z"
               style="fill:#ffffff"
               id="path84" />
          </g>
        </g>
        <g
           id="g106">
          <g
             id="g92">
            <path
               class="st10"
               d="m 134.1,750 c -1.4,0 -2.5,-1.1 -2.5,-2.5 v -34.3 c 0,-1.4 1.1,-2.5 2.5,-2.5 1.4,0 2.5,1.1 2.5,2.5 v 34.3 c 0,1.4 -1.1,2.5 -2.5,2.5 z"
               style="fill:#ffffff"
               id="path90" />
          </g>
          <g
             id="g96">
            <path
               class="st10"
               d="m 151.2,732.9 h -34.3 c -1.4,0 -2.5,-1.1 -2.5,-2.5 0,-1.4 1.1,-2.5 2.5,-2.5 h 34.3 c 1.4,0 2.5,1.1 2.5,2.5 0,1.4 -1.1,2.5 -2.5,2.5 z"
               style="fill:#ffffff"
               id="path94" />
          </g>
          <g
             id="g100">
            <path
               class="st10"
               d="m 122,745 c -0.6,0 -1.3,-0.2 -1.8,-0.7 -1,-1 -1,-2.6 0,-3.5 l 24.3,-24.3 c 1,-1 2.6,-1 3.5,0 1,1 1,2.6 0,3.5 l -24.3,24.3 c -0.5,0.5 -1.1,0.7 -1.7,0.7 z"
               style="fill:#ffffff"
               id="path98" />
          </g>
          <g
             id="g104">
            <path
               class="st10"
               d="m 146.2,745 c -0.6,0 -1.3,-0.2 -1.8,-0.7 L 120.2,720 c -1,-1 -1,-2.6 0,-3.5 1,-1 2.6,-1 3.5,0 l 24.3,24.3 c 1,1 1,2.6 0,3.5 -0.5,0.5 -1.2,0.7 -1.8,0.7 z"
               style="fill:#ffffff"
               id="path102" />
          </g>
        </g>
        <g
           id="g124">
          <g
             id="g110">
            <path
               class="st10"
               d="m 187,750 c -1.4,0 -2.5,-1.1 -2.5,-2.5 v -34.3 c 0,-1.4 1.1,-2.5 2.5,-2.5 1.4,0 2.5,1.1 2.5,2.5 v 34.3 c 0,1.4 -1.1,2.5 -2.5,2.5 z"
               style="fill:#ffffff"
               id="path108" />
          </g>
          <g
             id="g114">
            <path
               class="st10"
               d="m 204.1,732.9 h -34.3 c -1.4,0 -2.5,-1.1 -2.5,-2.5 0,-1.4 1.1,-2.5 2.5,-2.5 h 34.3 c 1.4,0 2.5,1.1 2.5,2.5 0,1.4 -1.1,2.5 -2.5,2.5 z"
               style="fill:#ffffff"
               id="path112" />
          </g>
          <g
             id="g118">
            <path
               class="st10"
               d="m 174.9,745 c -0.6,0 -1.3,-0.2 -1.8,-0.7 -1,-1 -1,-2.6 0,-3.5 l 24.3,-24.3 c 1,-1 2.6,-1 3.5,0 1,1 1,2.6 0,3.5 l -24.3,24.3 c -0.5,0.5 -1.1,0.7 -1.7,0.7 z"
               style="fill:#ffffff"
               id="path116" />
          </g>
          <g
             id="g122">
            <path
               class="st10"
               d="m 199.1,745 c -0.6,0 -1.3,-0.2 -1.8,-0.7 L 173.1,720 c -1,-1 -1,-2.6 0,-3.5 1,-1 2.6,-1 3.5,0 l 24.3,24.3 c 1,1 1,2.6 0,3.5 -0.5,0.5 -1.1,0.7 -1.8,0.7 z"
               style="fill:#ffffff"
               id="path120" />
          </g>
        </g>
        <g
           id="g142">
          <g
             id="g128">
            <path
               class="st10"
               d="m 239.9,750 c -1.4,0 -2.5,-1.1 -2.5,-2.5 v -34.3 c 0,-1.4 1.1,-2.5 2.5,-2.5 1.4,0 2.5,1.1 2.5,2.5 v 34.3 c 0,1.4 -1.1,2.5 -2.5,2.5 z"
               style="fill:#ffffff"
               id="path126" />
          </g>
          <g
             id="g132">
            <path
               class="st10"
               d="m 257.1,732.9 h -34.3 c -1.4,0 -2.5,-1.1 -2.5,-2.5 0,-1.4 1.1,-2.5 2.5,-2.5 h 34.3 c 1.4,0 2.5,1.1 2.5,2.5 0,1.4 -1.2,2.5 -2.5,2.5 z"
               style="fill:#ffffff"
               id="path130" />
          </g>
          <g
             id="g136">
            <path
               class="st10"
               d="m 227.8,745 c -0.6,0 -1.3,-0.2 -1.8,-0.7 -1,-1 -1,-2.6 0,-3.5 l 24.3,-24.3 c 1,-1 2.6,-1 3.5,0 1,1 1,2.6 0,3.5 l -24.3,24.3 c -0.4,0.5 -1.1,0.7 -1.7,0.7 z"
               style="fill:#ffffff"
               id="path134" />
          </g>
          <g
             id="g140">
            <path
               class="st10"
               d="m 252,745 c -0.6,0 -1.3,-0.2 -1.8,-0.7 L 226,720 c -1,-1 -1,-2.6 0,-3.5 1,-1 2.6,-1 3.5,0 l 24.3,24.3 c 1,1 1,2.6 0,3.5 -0.5,0.5 -1.1,0.7 -1.8,0.7 z"
               style="fill:#ffffff"
               id="path138" />
          </g>
        </g>
        <g
           id="g160">
          <g
             id="g146">
            <path
               class="st10"
               d="m 292.8,750 c -1.4,0 -2.5,-1.1 -2.5,-2.5 v -34.3 c 0,-1.4 1.1,-2.5 2.5,-2.5 1.4,0 2.5,1.1 2.5,2.5 v 34.3 c 0,1.4 -1.1,2.5 -2.5,2.5 z"
               style="fill:#ffffff"
               id="path144" />
          </g>
          <g
             id="g150">
            <path
               class="st10"
               d="m 310,732.9 h -34.3 c -1.4,0 -2.5,-1.1 -2.5,-2.5 0,-1.4 1.1,-2.5 2.5,-2.5 H 310 c 1.4,0 2.5,1.1 2.5,2.5 0,1.4 -1.1,2.5 -2.5,2.5 z"
               style="fill:#ffffff"
               id="path148" />
          </g>
          <g
             id="g154">
            <path
               class="st10"
               d="m 280.7,745 c -0.6,0 -1.3,-0.2 -1.8,-0.7 -1,-1 -1,-2.6 0,-3.5 l 24.3,-24.3 c 1,-1 2.6,-1 3.5,0 1,1 1,2.6 0,3.5 l -24.3,24.3 c -0.4,0.5 -1.1,0.7 -1.7,0.7 z"
               style="fill:#ffffff"
               id="path152" />
          </g>
          <g
             id="g158">
            <path
               class="st10"
               d="m 304.9,745 c -0.6,0 -1.3,-0.2 -1.8,-0.7 L 278.9,720 c -1,-1 -1,-2.6 0,-3.5 1,-1 2.6,-1 3.5,0 l 24.3,24.3 c 1,1 1,2.6 0,3.5 -0.5,0.5 -1.1,0.7 -1.8,0.7 z"
               style="fill:#ffffff"
               id="path156" />
          </g>
        </g>
      </g>
      <path
         class="st11"
         d="m 120.4,659.9 h -1.8 v -16.4 c 0,-6.9 -5.6,-12.6 -12.6,-12.6 -7,0 -12.6,5.6 -12.6,12.6 v 16.4 h -1.8 c -1.3,0 -2.4,1.1 -2.4,2.4 V 685 c 0,1.3 1.1,2.4 2.4,2.4 h 28.7 c 1.3,0 2.4,-1.1 2.4,-2.4 v -22.7 c 0.1,-1.3 -1,-2.4 -2.3,-2.4 z m -14.3,18.6 c -2.7,0 -4.8,-2.2 -4.8,-4.8 0,-2.7 2.2,-4.8 4.8,-4.8 2.6,0 4.8,2.2 4.8,4.8 0,2.6 -2.2,4.8 -4.8,4.8 z m 9.6,-18.6 H 96.5 v -16.4 c 0,-5.3 4.3,-9.6 9.6,-9.6 5.3,0 9.6,4.3 9.6,9.6 z"
         style="fill:#4e4f4d"
         id="path164" />
    </g>
    <path
       class="st10"
       d="M 1308.8,975 H 91.2 c -5.5,0 -10,-4.5 -10,-10 v -15 h 1237.5 v 15 c 0.1,5.5 -4.4,10 -9.9,10 z"
       style="fill:#3c3c3c;fill-opacity:1"
       id="path168" />
    <path
       class="st12"
       d="m 1012.5,900 h -625 c -6.9,0 -12.5,-5.6 -12.5,-12.5 v 0 c 0,-6.9 5.6,-12.5 12.5,-12.5 h 625 c 6.9,0 12.5,5.6 12.5,12.5 v 0 c 0,6.9 -5.6,12.5 -12.5,12.5 z"
       style="fill:#fcfffd"
       id="path170" />
    <path
       class="st13"
       d="m 81.2,950 h 1237.5 v -40 c 0,-5.5 -4.5,-10 -10,-10 H 91.2 c -5.5,0 -10,4.5 -10,10 z"
       style="fill:#9f6455;fill-opacity:1"
       id="path172" />
    <path
       d="m 231.2,975 h 75 v 125 h -75 z"
       class="st12"
       style="fill:#3c3c3c;fill-opacity:1"
       id="path174" />
    <path
       d="m 1093.8,975 h 75 v 125 h -75 z"
       transform="rotate(180,1131.25,1037.5)"
       class="st12"
       style="fill:#3c3c3c;fill-opacity:1"
       id="path176" />
    <path
       class="st14"
       d="m 820.6,430.9 v 44.6 c 0,19.1 -15.5,34.6 -34.6,34.6 v 0 c -19.1,0 -34.6,-15.5 -34.6,-34.6 v -4.6"
       style="fill:none;stroke:#676b76;stroke-width:10;stroke-miterlimit:10"
       id="path178" />
    <path
       d="m 738.09998,470.89999 h 26.5 l -13.29999,-30 z"
       class="st15"
       style="fill:#676b76"
       id="path180" />
    <path
       d="M 820.59998,341.60001 V 0"
       class="st16"
       style="fill:none;stroke:#ac7f4e;stroke-width:10;stroke-linejoin:round;stroke-miterlimit:10"
       id="path182" />
    <path
       class="st14"
       d="m 1013.1,145.9 v 14.6 c 0,19.1 15.5,34.6 34.6,34.6 v 0 c 19.1,0 34.6,-15.5 34.6,-34.6 v -4.6"
       style="fill:none;stroke:#676b76;stroke-width:10;stroke-miterlimit:10"
       id="path184" />
    <path
       d="m 1095.6,155.89999 h -26.5 L 1082.3,125.9 Z"
       class="st15"
       style="fill:#676b76"
       id="path186" />
    <path
       d="M 1013.1,96.699997 V 0"
       class="st16"
       style="fill:none;stroke:#ac7f4e;stroke-width:10;stroke-linejoin:round;stroke-miterlimit:10"
       id="path188" />
    <path
       class="st14"
       d="m 380.1,135.9 v 14.6 c 0,19.1 15.5,34.6 34.6,34.6 v 0 c 19.1,0 34.6,-15.5 34.6,-34.6 v -4.6"
       style="fill:none;stroke:#676b76;stroke-width:10;stroke-miterlimit:10"
       id="path190" />
    <path
       d="m 462.29999,145.89999 h -25.9 L 449.29999,128 Z"
       class="st15"
       style="fill:#676b76"
       id="path192" />
    <path
       d="M 380.10001,86.699997 V 0"
       class="st16"
       style="fill:none;stroke:#ac7f4e;stroke-width:10;stroke-linejoin:round;stroke-miterlimit:10"
       id="path194" />
    <path
       class="st17"
       d="m 554,575.3 v 44.6 c 0,19.1 -15.5,34.6 -34.6,34.6 v 0 c -19.1,0 -34.6,-15.5 -34.6,-34.6 v -4.6"
       style="fill:none;stroke:#ffc42b;stroke-width:10;stroke-linecap:round;stroke-linejoin:round;stroke-miterlimit:10"
       id="path196" />
    <path
       d="M 554,486 V 0"
       class="st16"
       style="fill:none;stroke:#ac7f4e;stroke-width:10;stroke-linejoin:round;stroke-miterlimit:10"
       id="path198" />
    <path
       class="st18"
       d="m 465.2,781.9 38,-142 c 1.4,-5.3 6.9,-8.5 12.2,-7.1 l 225.9,60.5 c 5.3,1.4 8.5,6.9 7.1,12.2 l -38,142 c -1.4,5.3 -6.9,8.5 -12.2,7.1 L 472.3,794.1 c -5.4,-1.4 -8.5,-6.9 -7.1,-12.2 z"
       style="fill:#0069a6"
       id="path200" />
    <path
       d="m 489.39999,697.09998 h 253.9 v 22.5 h -253.9 z"
       transform="matrix(0.9659,0.2588,-0.2588,0.9659,204.3414,-135.3754)"
       class="st3"
       style="fill:#fcdf42"
       id="path202" />
    <g
       id="g208">
      <path
         d="m 492,729.09998 64.20001,17.20001"
         class="st19"
         style="fill:none;stroke:#fcdf42;stroke-width:10;stroke-linecap:round;stroke-linejoin:round;stroke-miterlimit:10"
         id="path204" />
      <path
         d="m 483.89999,759.5 35.19999,9.40002"
         class="st19"
         style="fill:none;stroke:#fcdf42;stroke-width:10;stroke-linecap:round;stroke-linejoin:round;stroke-miterlimit:10"
         id="path206" />
    </g>
    <g
       id="g222">
      <path
         class="st1"
         d="m 1270.9,296.6 c -3.8,0 -7.5,-1.1 -10.7,-3.1 l -69.1,-43.7 c -5.8,-3.7 -9.3,-10 -9.3,-16.9 V 90 c 0,-11 9,-20 20,-20 H 1340 c 11,0 20,9 20,20 v 142.9 c 0,6.9 -3.5,13.2 -9.3,16.9 l -69.1,43.7 c -3.2,2 -6.9,3.1 -10.7,3.1 z"
         style="fill:#565656;fill-opacity:1"
         id="path210" />
      <path
         class="st11"
         d="m 1260.9,286.6 c -3.8,0 -7.5,-1.1 -10.7,-3.1 l -69.1,-43.7 c -5.8,-3.7 -9.3,-10 -9.3,-16.9 V 80 c 0,-11 9,-20 20,-20 H 1330 c 11,0 20,9 20,20 v 142.9 c 0,6.9 -3.5,13.2 -9.3,16.9 l -69.1,43.7 c -3.2,2 -6.9,3.1 -10.7,3.1 z"
         style="fill:#4e4f4d"
         id="path212" />
      <path
         class="st5"
         d="m 1335.3,231.3 -69.1,43.7 c -3.3,2.1 -7.4,2.1 -10.7,0 l -69.1,-43.7 c -2.9,-1.8 -4.7,-5 -4.7,-8.5 V 80 c 0,-5.5 4.5,-10 10,-10 H 1330 c 5.5,0 10,4.5 10,10 v 142.9 c 0,3.4 -1.8,6.6 -4.7,8.4 z"
         style="fill:#1e90ff;fill-opacity:1"
         id="path214" />
      <g
         id="g220">
        <path
           d="m 1268.8,184.10001 h -15.9 l -5,-85.700008 h 25.9 z"
           class="st11"
           style="fill:#4e4f4d"
           id="path216" />
        <path
           d="m 1247.9,204.10001 h 25.9 v 25.9 h -25.9 z"
           class="st11"
           style="fill:#4e4f4d"
           id="path218" />
      </g>
    </g>
    <path
       d="m 358.60001,404.5 149.29998,-40 -50.6,-189 -103.59998,27.8 -33.40002,57.90001 z"
       class="st1"
       style="fill:#565656;fill-opacity:1"
       id="path224" />
    <path
       d="m 339.60001,390.5 149.29998,-40 -50.6,-189 -103.59998,27.8 -33.40002,57.9 z"
       class="st8"
       style="fill:#fef2b7"
       id="path226" />
    <g
       id="g272">
      <path
         class="st1"
         d="m 155.1,254.6 c -37.9,0 -68.8,-30.9 -68.8,-68.8 0,-37.9 30.9,-68.8 68.8,-68.8 37.9,0 68.8,30.9 68.8,68.8 0,37.9 -30.9,68.8 -68.8,68.8 z"
         style="fill:#565656;fill-opacity:1"
         id="path228" />
      <path
         class="st2"
         d="m 140.1,239.6 c -37.9,0 -68.8,-30.9 -68.8,-68.8 0,-37.9 30.9,-68.8 68.8,-68.8 37.9,0 68.8,30.9 68.8,68.8 0,37.9 -30.9,68.8 -68.8,68.8 z"
         style="fill:#ffc42b"
         id="path230" />
      <path
         d="M 198.9,170.8 A 58.799999,58.799999 0 0 1 140.10001,229.6 58.799999,58.799999 0 0 1 81.300007,170.8 58.799999,58.799999 0 0 1 140.10001,112 58.799999,58.799999 0 0 1 198.9,170.8 Z"
         transform="matrix(0.8507,-0.5257,0.5257,0.8507,-68.8777,99.1396)"
         class="st3"
         style="fill:#fcdf42"
         id="path232" />
      <path
         d="m 178.9,170.8 a 38.799999,38.799999 0 0 1 -38.79999,38.8 38.799999,38.799999 0 0 1 -38.8,-38.8 38.799999,38.799999 0 0 1 38.8,-38.8 38.799999,38.799999 0 0 1 38.79999,38.8 z"
         transform="matrix(0.7071,-0.7071,0.7071,0.7071,-79.7527,149.0592)"
         class="st2"
         style="fill:#ffc42b"
         id="path234" />
      <g
         id="g238">
        <path
           class="st2"
           d="m 198.9,173.3 h -20 c -1.4,0 -2.5,-1.1 -2.5,-2.5 0,-1.4 1.1,-2.5 2.5,-2.5 h 20 c 1.4,0 2.5,1.1 2.5,2.5 0,1.4 -1.2,2.5 -2.5,2.5 z"
           style="fill:#ffc42b"
           id="path236" />
      </g>
      <g
         id="g242">
        <path
           class="st2"
           d="m 101.2,173.3 h -20 c -1.4,0 -2.5,-1.1 -2.5,-2.5 0,-1.4 1.1,-2.5 2.5,-2.5 h 20 c 1.4,0 2.5,1.1 2.5,2.5 0,1.4 -1.1,2.5 -2.5,2.5 z"
           style="fill:#ffc42b"
           id="path240" />
      </g>
      <g
         id="g246">
        <path
           class="st2"
           d="m 140.1,134.5 c -1.4,0 -2.5,-1.1 -2.5,-2.5 v -20 c 0,-1.4 1.1,-2.5 2.5,-2.5 1.4,0 2.5,1.1 2.5,2.5 v 20 c 0,1.4 -1.2,2.5 -2.5,2.5 z"
           style="fill:#ffc42b"
           id="path244" />
      </g>
      <g
         id="g250">
        <path
           class="st2"
           d="m 140.1,232.1 c -1.4,0 -2.5,-1.1 -2.5,-2.5 v -20 c 0,-1.4 1.1,-2.5 2.5,-2.5 1.4,0 2.5,1.1 2.5,2.5 v 20 c 0,1.4 -1.2,2.5 -2.5,2.5 z"
           style="fill:#ffc42b"
           id="path248" />
      </g>
      <g
         id="g254">
        <path
           class="st2"
           d="m 181.6,214.9 c -0.6,0 -1.3,-0.2 -1.8,-0.7 L 165.7,200 c -1,-1 -1,-2.6 0,-3.5 1,-1 2.6,-1 3.5,0 l 14.1,14.1 c 1,1 1,2.6 0,3.5 -0.4,0.5 -1,0.8 -1.7,0.8 z"
           style="fill:#ffc42b"
           id="path252" />
      </g>
      <g
         id="g258">
        <path
           class="st2"
           d="m 112.6,145.9 c -0.6,0 -1.3,-0.2 -1.8,-0.7 L 96.7,131 c -1,-1 -1,-2.6 0,-3.5 1,-1 2.6,-1 3.5,0 l 14.1,14.1 c 1,1 1,2.6 0,3.5 -0.4,0.5 -1,0.8 -1.7,0.8 z"
           style="fill:#ffc42b"
           id="path256" />
      </g>
      <g
         id="g262">
        <path
           class="st2"
           d="m 167.5,145.9 c -0.6,0 -1.3,-0.2 -1.8,-0.7 -1,-1 -1,-2.6 0,-3.5 l 14.1,-14.1 c 1,-1 2.6,-1 3.5,0 1,1 1,2.6 0,3.5 l -14.1,14.1 c -0.4,0.4 -1.1,0.7 -1.7,0.7 z"
           style="fill:#ffc42b"
           id="path260" />
      </g>
      <g
         id="g266">
        <path
           class="st2"
           d="m 98.5,214.9 c -0.6,0 -1.3,-0.2 -1.8,-0.7 -1,-1 -1,-2.6 0,-3.5 l 14.1,-14.1 c 1,-1 2.6,-1 3.5,0 1,1 1,2.6 0,3.5 l -14.1,14.1 c -0.4,0.4 -1.1,0.7 -1.7,0.7 z"
           style="fill:#ffc42b"
           id="path264" />
      </g>
      <g
         id="g270">
        <path
           class="st3"
           d="m 148.2,179.4 c 0,4.9 -1.9,7.7 -5.7,8.4 v 5.2 h -3.2 v -5 c -2.3,-0.2 -4.1,-1 -5.3,-2.5 -1.2,-1.5 -1.8,-4 -1.8,-7.4 V 176 h 5.6 v 2.7 c 0,3 0.8,4.5 2.3,4.5 0.8,0 1.4,-0.3 1.8,-0.8 0.4,-0.5 0.5,-1.4 0.5,-2.7 0,-2.3 -1,-4.3 -3.1,-6.3 -0.1,-0.1 -0.5,-0.5 -1.5,-1.3 -0.9,-0.8 -1.4,-1.3 -1.6,-1.4 -2.8,-2.5 -4.2,-5.5 -4.2,-8.9 0,-5.2 2.4,-8 7.1,-8.3 v -5 h 3.2 v 5.2 c 1.5,0.3 2.6,1 3.5,2 1.2,1.5 1.8,4 1.8,7.4 0,0 0,0.1 0,0.1 v 1.8 h -5.3 v -2.2 c 0,-1.5 -0.2,-2.7 -0.5,-3.4 -0.3,-0.7 -0.9,-1.1 -1.7,-1.1 -0.8,0 -1.4,0.2 -1.8,0.7 -0.4,0.5 -0.6,1.3 -0.6,2.4 0,1.8 0.8,3.4 2.4,5 l 3.2,2.9 c 3.2,3.1 4.9,6.4 4.9,10.1 z"
           style="fill:#fcdf42"
           id="path268" />
      </g>
    </g>
    <g
       id="g316">
      <path
         class="st2"
         d="m 1239.9,900 c -37.9,0 -68.8,-30.9 -68.8,-68.8 0,-37.9 30.9,-68.8 68.8,-68.8 37.9,0 68.8,30.9 68.8,68.8 0,37.9 -30.8,68.8 -68.8,68.8 z"
         style="fill:#ffc42b"
         id="path274" />
      <path
         d="m 1298.7,831.20001 a 58.799999,58.799999 0 0 1 -58.8,58.8 58.799999,58.799999 0 0 1 -58.8,-58.8 58.799999,58.799999 0 0 1 58.8,-58.8 58.799999,58.799999 0 0 1 58.8,58.8 z"
         transform="matrix(0.8507,-0.5257,0.5257,0.8507,-251.8009,776.0171)"
         class="st3"
         style="fill:#fcdf42"
         id="path276" />
      <path
         d="m 1278.7,831.20001 a 38.799999,38.799999 0 0 1 -38.8,38.8 38.799999,38.799999 0 0 1 -38.8,-38.8 38.799999,38.799999 0 0 1 38.8,-38.8 38.799999,38.799999 0 0 1 38.8,38.8 z"
         transform="matrix(0.7071,-0.7071,0.7071,0.7071,-224.573,1120.226)"
         class="st2"
         style="fill:#ffc42b"
         id="path278" />
      <g
         id="g282">
        <path
           class="st2"
           d="m 1298.7,833.7 h -20 c -1.4,0 -2.5,-1.1 -2.5,-2.5 0,-1.4 1.1,-2.5 2.5,-2.5 h 20 c 1.4,0 2.5,1.1 2.5,2.5 0,1.4 -1.1,2.5 -2.5,2.5 z"
           style="fill:#ffc42b"
           id="path280" />
      </g>
      <g
         id="g286">
        <path
           class="st2"
           d="m 1201.1,833.7 h -20 c -1.4,0 -2.5,-1.1 -2.5,-2.5 0,-1.4 1.1,-2.5 2.5,-2.5 h 20 c 1.4,0 2.5,1.1 2.5,2.5 0,1.4 -1.1,2.5 -2.5,2.5 z"
           style="fill:#ffc42b"
           id="path284" />
      </g>
      <g
         id="g290">
        <path
           class="st2"
           d="m 1239.9,794.9 c -1.4,0 -2.5,-1.1 -2.5,-2.5 v -20 c 0,-1.4 1.1,-2.5 2.5,-2.5 1.4,0 2.5,1.1 2.5,2.5 v 20 c 0,1.4 -1.1,2.5 -2.5,2.5 z"
           style="fill:#ffc42b"
           id="path288" />
      </g>
      <g
         id="g294">
        <path
           class="st2"
           d="m 1239.9,892.5 c -1.4,0 -2.5,-1.1 -2.5,-2.5 v -20 c 0,-1.4 1.1,-2.5 2.5,-2.5 1.4,0 2.5,1.1 2.5,2.5 v 20 c 0,1.4 -1.1,2.5 -2.5,2.5 z"
           style="fill:#ffc42b"
           id="path292" />
      </g>
      <g
         id="g298">
        <path
           class="st2"
           d="m 1281.5,875.3 c -0.6,0 -1.3,-0.2 -1.8,-0.7 l -14.1,-14.1 c -1,-1 -1,-2.6 0,-3.5 1,-1 2.6,-1 3.5,0 l 14.1,14.1 c 1,1 1,2.6 0,3.5 -0.4,0.4 -1,0.7 -1.7,0.7 z"
           style="fill:#ffc42b"
           id="path296" />
      </g>
      <g
         id="g302">
        <path
           class="st2"
           d="m 1212.5,806.3 c -0.6,0 -1.3,-0.2 -1.8,-0.7 l -14.1,-14.1 c -1,-1 -1,-2.6 0,-3.5 1,-1 2.6,-1 3.5,0 l 14.1,14.1 c 1,1 1,2.6 0,3.5 -0.4,0.4 -1.1,0.7 -1.7,0.7 z"
           style="fill:#ffc42b"
           id="path300" />
      </g>
      <g
         id="g306">
        <path
           class="st2"
           d="m 1267.4,806.3 c -0.6,0 -1.3,-0.2 -1.8,-0.7 -1,-1 -1,-2.6 0,-3.5 l 14.1,-14.1 c 1,-1 2.6,-1 3.5,0 1,1 1,2.6 0,3.5 l -14.1,14.1 c -0.4,0.4 -1.1,0.7 -1.7,0.7 z"
           style="fill:#ffc42b"
           id="path304" />
      </g>
      <g
         id="g310">
        <path
           class="st2"
           d="m 1198.4,875.3 c -0.6,0 -1.3,-0.2 -1.8,-0.7 -1,-1 -1,-2.6 0,-3.5 l 14.1,-14.1 c 1,-1 2.6,-1 3.5,0 1,1 1,2.6 0,3.5 l -14.1,14.1 c -0.5,0.4 -1.1,0.7 -1.7,0.7 z"
           style="fill:#ffc42b"
           id="path308" />
      </g>
      <g
         id="g314">
        <path
           class="st3"
           d="m 1248,839.8 c 0,4.9 -1.9,7.7 -5.7,8.4 v 5.2 h -3.2 v -5 c -2.3,-0.2 -4.1,-1 -5.3,-2.5 -1.2,-1.5 -1.8,-4 -1.8,-7.4 v -2.2 h 5.6 v 2.7 c 0,3 0.8,4.5 2.3,4.5 0.8,0 1.4,-0.3 1.8,-0.8 0.4,-0.5 0.5,-1.4 0.5,-2.7 0,-2.3 -1,-4.3 -3.1,-6.3 -0.1,-0.1 -0.5,-0.5 -1.5,-1.3 -0.9,-0.8 -1.4,-1.3 -1.6,-1.4 -2.8,-2.5 -4.2,-5.5 -4.2,-8.9 0,-5.2 2.4,-8 7.1,-8.3 v -5 h 3.2 v 5.2 c 1.5,0.3 2.6,1 3.5,2 1.2,1.5 1.8,4 1.8,7.4 0,0 0,0.1 0,0.1 v 1.8 h -5.3 v -2.2 c 0,-1.5 -0.2,-2.7 -0.5,-3.4 -0.3,-0.7 -0.9,-1.1 -1.7,-1.1 -0.8,0 -1.4,0.2 -1.8,0.7 -0.4,0.5 -0.6,1.3 -0.6,2.4 0,1.8 0.8,3.4 2.4,5 l 3.2,2.9 c 3.3,3.2 4.9,6.5 4.9,10.2 z"
           style="fill:#fcdf42"
           id="path312" />
      </g>
    </g>
    <path
       class="st20"
       d="m 380.1,145.9 v 0 c -9.6,0 -17.3,-7.8 -17.3,-17.3 V 94 c 0,-9.6 7.8,-17.3 17.3,-17.3 v 0 c 9.6,0 17.3,7.8 17.3,17.3 v 34.6 c 0,9.6 -7.8,17.3 -17.3,17.3 z"
       style="fill:#afd146"
       id="path318" />
    <g
       id="g350">
      <path
         d="M 343.79999,223.2 424.5,201.60001"
         class="st21"
         style="fill:none;stroke:#4e4f4d;stroke-width:5;stroke-linecap:round;stroke-linejoin:round;stroke-miterlimit:10"
         id="path320" />
      <path
         d="M 329.39999,261 433,233.2"
         class="st21"
         style="fill:none;stroke:#4e4f4d;stroke-width:5;stroke-linecap:round;stroke-linejoin:round;stroke-miterlimit:10"
         id="path322" />
      <path
         d="M 337.89999,292.60001 441.5,264.89999"
         class="st21"
         style="fill:none;stroke:#4e4f4d;stroke-width:5;stroke-linecap:round;stroke-linejoin:round;stroke-miterlimit:10"
         id="path324" />
      <path
         d="M 346.39999,324.20001 450,296.5"
         class="st21"
         style="fill:none;stroke:#4e4f4d;stroke-width:5;stroke-linecap:round;stroke-linejoin:round;stroke-miterlimit:10"
         id="path326" />
      <path
         d="m 354.79999,355.79999 103.6,-27.69998"
         class="st21"
         style="fill:none;stroke:#4e4f4d;stroke-width:5;stroke-linecap:round;stroke-linejoin:round;stroke-miterlimit:10"
         id="path328" />
      <path
         d="M 301.29999,247.2 347,235 334.70001,189.3 Z"
         class="st22"
         style="fill:#ede1b0"
         id="path330" />
      <g
         id="g348">
        <g
           id="g344">
          <path
             class="st23"
             d="m 344.9,277 0.2,-1.8 2.9,0.3 -0.2,2 c -0.1,1.1 -0.1,1.9 0.1,2.4 0.2,0.5 0.5,0.7 1,0.8 0.5,0 0.9,-0.1 1.1,-0.5 0.2,-0.4 0.3,-1 0.4,-1.8 0.1,-0.8 0,-1.6 -0.3,-2.3 -0.3,-0.7 -0.7,-1.4 -1.3,-2.1 l -1.4,-1.7 c -0.6,-0.8 -1.1,-1.6 -1.4,-2.4 -0.3,-0.8 -0.4,-1.7 -0.3,-2.8 0.1,-1.7 0.6,-2.9 1.3,-3.6 0.7,-0.8 1.9,-1.1 3.4,-0.9 1.6,0.1 2.6,0.7 3.1,1.7 0.5,1 0.6,2.4 0.5,4.2 l -0.1,1.3 -2.8,-0.2 0.1,-1.5 c 0.1,-1 0.1,-1.7 -0.1,-2.1 -0.1,-0.4 -0.4,-0.7 -0.9,-0.7 -0.5,0 -0.8,0.1 -1.1,0.4 -0.2,0.3 -0.4,0.8 -0.4,1.4 -0.1,0.6 0,1.2 0.2,1.6 0.2,0.4 0.5,0.9 1,1.6 l 1.5,2 c 0.8,1 1.3,2 1.7,2.9 0.3,1 0.5,2 0.4,3.1 -0.2,1.9 -0.6,3.3 -1.3,4.1 -0.7,0.8 -1.9,1.2 -3.5,1.1 -1.6,-0.1 -2.7,-0.7 -3.2,-1.8 -0.6,-1.3 -0.8,-2.8 -0.6,-4.7 z"
             style="fill:#ff3c00"
             id="path332" />
          <path
             class="st23"
             d="m 360,284.1 1.8,-20.3 6.8,0.6 -0.2,2.7 -3.7,-0.3 -0.5,5.9 3.5,0.3 -0.2,2.6 -3.5,-0.3 -0.6,6.5 3.8,0.3 -0.2,2.7 z"
             style="fill:#ff3c00"
             id="path334" />
          <path
             class="st23"
             d="m 381.7,284.8 c -0.8,0.9 -1.9,1.3 -3.4,1.1 -1.5,-0.1 -2.6,-0.7 -3.2,-1.8 -0.7,-1.1 -0.9,-2.5 -0.7,-4.4 l 0.8,-8.8 c 0.3,-3 1.2,-4.8 2.9,-5.4 0.6,-0.2 1.3,-0.3 2.2,-0.2 2.8,0.2 4.1,2.2 3.8,5.8 l -0.2,2.8 -3,-0.3 0.2,-2.6 c 0.1,-1 0.1,-1.8 -0.1,-2.3 -0.1,-0.5 -0.5,-0.7 -1,-0.8 -0.5,0 -0.9,0.2 -1.1,0.6 -0.2,0.5 -0.4,1.2 -0.5,2.2 l -0.8,9.5 c -0.1,1.1 -0.1,1.9 0.1,2.4 0.2,0.5 0.5,0.8 1,0.8 0.5,0 0.9,-0.2 1.1,-0.6 0.2,-0.5 0.4,-1.2 0.5,-2.3 l 0.3,-2.9 3,0.3 -0.3,2.9 c -0.3,1.7 -0.8,3.1 -1.6,4 z"
             style="fill:#ff3c00"
             id="path336" />
          <path
             class="st23"
             d="m 394.8,277.5 -1,-0.1 -0.8,9.6 -3.1,-0.3 1.8,-20.3 5.1,0.4 c 1.1,0.1 1.8,0.4 2.3,0.8 0.5,0.5 0.8,1.1 0.9,1.9 0.1,0.8 0.1,1.8 0,3 -0.1,1.2 -0.3,2.2 -0.6,2.8 -0.3,0.6 -0.8,1 -1.6,1.2 0.7,0.2 1.1,0.7 1.3,1.5 0.2,0.8 0.2,2.6 0,5.2 -0.2,2.6 -0.3,4 -0.3,4.2 l -3.1,-0.3 c -0.1,-0.2 0.1,-2.6 0.5,-7.3 0.1,-0.9 0,-1.5 -0.2,-1.8 -0.1,-0.2 -0.6,-0.4 -1.2,-0.5 z m -0.8,-2.5 1.2,0.1 c 0.4,0 0.7,0 0.9,-0.2 0.2,-0.2 0.4,-0.5 0.5,-0.9 0.1,-0.4 0.2,-1.1 0.3,-2 v -0.1 c 0.1,-1.1 0.1,-1.8 -0.1,-2.2 -0.2,-0.4 -0.6,-0.6 -1.2,-0.6 l -1,-0.1 z"
             style="fill:#ff3c00"
             id="path338" />
          <path
             class="st23"
             d="m 406.2,288.1 1.8,-20.3 6.8,0.6 -0.2,2.7 -3.7,-0.3 -0.5,5.9 3.5,0.3 -0.2,2.6 -3.5,-0.3 -0.6,6.5 3.8,0.3 -0.2,2.7 z"
             style="fill:#ff3c00"
             id="path340" />
          <path
             class="st23"
             d="m 421.4,289.4 1.5,-17.6 -2.4,-0.2 0.2,-2.7 7.7,0.7 -0.2,2.7 -2.3,-0.2 -1.5,17.6 z"
             style="fill:#ff3c00"
             id="path342" />
        </g>
        <path
           class="st23"
           d="m 439.2,260.4 -3.5,40.2 -102,-8.9 3.5,-40.2 102,8.9 m 4.3,-3.6 -3.9,-0.3 -102,-8.9 -3.9,-0.3 -0.3,3.9 -3.5,40.2 -0.3,3.9 3.9,0.3 102,8.9 3.9,0.3 0.3,-3.9 3.5,-40.2 z"
           style="fill:#ff3c00"
           id="path346" />
      </g>
    </g>
    <path
       class="st14"
       d="m 414.7,185.2 v 0 c 19.1,0 34.6,-15.5 34.6,-34.6 V 146"
       style="fill:none;stroke:#676b76;stroke-width:10;stroke-miterlimit:10"
       id="path352" />
    <path
       class="st9"
       d="m 554,585.3 v 0 c 9.6,0 17.3,-7.8 17.3,-17.3 v -74.6 c 0,-9.6 -7.8,-17.3 -17.3,-17.3 v 0 c -9.6,0 -17.3,7.8 -17.3,17.3 V 568 c 0,9.6 7.8,17.3 17.3,17.3 z"
       style="fill:#f99300"
       id="path354" />
    <path
       d="M 471.5,615.29999 H 498 l -13.20001,-30 z"
       class="st2"
       style="fill:#ffc42b"
       id="path356" />
    <path
       class="st20"
       d="m 820.6,440.9 v 0 c 9.6,0 17.3,-7.8 17.3,-17.3 V 349 c 0,-9.6 -7.8,-17.3 -17.3,-17.3 v 0 c -9.6,0 -17.3,7.8 -17.3,17.3 v 74.6 c 0,9.5 7.7,17.3 17.3,17.3 z"
       style="fill:#afd146"
       id="path358" />
    <path
       class="st9"
       d="m 1013.1,155.9 v 0 c -9.6,0 -17.3,-7.8 -17.3,-17.3 V 104 c 0,-9.6 7.8,-17.3 17.3,-17.3 v 0 c 9.6,0 17.3,7.8 17.3,17.3 v 34.6 c 0,9.6 -7.8,17.3 -17.3,17.3 z"
       style="fill:#f99300"
       id="path360" />
    <path
       d="m 1160.4,251 -65.5,-17.5 -24.6,-37.7 -40.2,20.30001 -65.39999,-17.5 -15.70001,58.5 -23.90002,12.1 L 883.90002,422.89999 1118.2,485.70001 1159.4,332 1144.7,309.60001 Z"
       class="st1"
       style="fill:#565656;fill-opacity:1"
       id="path362" />
    <g
       id="g380">
      <path
         d="M 927.09998,236.2 H 1086.2 V 478.8 H 927.09998 Z"
         transform="matrix(0.2588,-0.9659,0.9659,0.2588,400.7977,1237.2854)"
         class="st8"
         style="fill:#fef2b7"
         id="path364" />
      <path
         d="M 1055.3,175.8 910.09998,249.2 1144.4,312 Z"
         class="st22"
         style="fill:#ede1b0"
         id="path366" />
      <path
         d="M 999.09998,385.39999 910.09998,249.2 1144.4,312 Z"
         class="st24"
         style="fill:#c9c09b"
         id="path368" />
      <path
         d="M 948.09998,179.8 H 1106.1 V 382.40001 H 948.09998 Z"
         transform="matrix(-0.2588,0.9659,-0.9659,-0.2588,1564.4688,-638.1958)"
         class="st25"
         style="fill:#f2f2f4"
         id="path370" />
      <path
         d="m 1047.9,299.5 18.4,-69 -47.9,-12.8 -18.49998,68.90001 -22.10003,-5.9 30.30001,71.19998 61.8,-46.5 z"
         class="st9"
         style="fill:#f99300"
         id="path372" />
      <path
         d="M 1144.4,312 1103.2,465.70001 1006.6,357.5 Z"
         class="st26"
         style="fill:#dbd1a7"
         id="path374" />
      <path
         d="M 910.09998,249.2 868.90002,402.89999 1006.6,357.5 Z"
         class="st8"
         style="fill:#fef2b7"
         id="path376" />
      <path
         d="M 1014.1,329.5 868.90002,402.89999 1103.2,465.70001 Z"
         class="st22"
         style="fill:#ede1b0"
         id="path378" />
    </g>
    <path
       class="st14"
       d="m 1047.7,195.2 v 0 c 19.1,0 34.6,-15.5 34.6,-34.6 V 156"
       style="fill:none;stroke:#676b76;stroke-width:10;stroke-miterlimit:10"
       id="path382" />
    <g
       id="g396">
      <path
         class="st1"
         d="m 97.5,515.4 c -6.3,0 -12,-3.2 -15.3,-8.5 -3.3,-5.3 -3.6,-11.9 -0.8,-17.5 l 77.5,-155 c 3.1,-6.1 9.2,-9.9 16.1,-9.9 6.9,0 13,3.8 16.1,9.9 l 77.5,155 c 2.8,5.6 2.5,12.2 -0.8,17.5 -3.3,5.3 -9,8.5 -15.3,8.5 z"
         style="fill:#565656;fill-opacity:1"
         id="path384" />
      <path
         class="st11"
         d="m 77.5,503.4 c -6.3,0 -12,-3.2 -15.3,-8.5 -3.3,-5.3 -3.6,-11.9 -0.8,-17.5 l 77.5,-155 c 3.1,-6.1 9.2,-9.9 16.1,-9.9 6.9,0 13,3.8 16.1,9.9 l 77.5,155 c 2.8,5.6 2.5,12.2 -0.8,17.5 -3.3,5.3 -9,8.5 -15.3,8.5 z"
         style="fill:#4e4f4d"
         id="path386" />
      <path
         class="st3"
         d="m 146.1,325.9 -77.5,155 c -3.3,6.6 1.5,14.5 8.9,14.5 h 155 c 7.4,0 12.3,-7.8 8.9,-14.5 l -77.5,-155 c -3.6,-7.3 -14.1,-7.3 -17.8,0 z"
         style="fill:#fcdf42"
         id="path388" />
      <g
         id="g394">
        <path
           class="st11"
           d="m 157.4,439.4 h -4.7 c -2.6,0 -4.8,-2.1 -5,-4.7 l -3.8,-65.8 c -0.2,-2.9 2.1,-5.3 5,-5.3 h 12.4 c 2.9,0 5.2,2.4 5,5.3 l -3.8,65.8 c -0.3,2.6 -2.5,4.7 -5.1,4.7 z"
           style="fill:#4e4f4d"
           id="path390" />
        <path
           class="st11"
           d="m 161.5,480.1 h -13 c -2.8,0 -5,-2.2 -5,-5 v -13 c 0,-2.8 2.2,-5 5,-5 h 13 c 2.8,0 5,2.2 5,5 v 13 c 0,2.7 -2.2,5 -5,5 z"
           style="fill:#4e4f4d"
           id="path392" />
      </g>
    </g>
    <path
       class="st17"
       d="m 519.4,654.6 v 0 c -19.1,0 -34.6,-15.5 -34.6,-34.6 v -4.6"
       style="fill:none;stroke:#ffc42b;stroke-width:10;stroke-linecap:round;stroke-linejoin:round;stroke-miterlimit:10"
       id="path398" />
    <path
       d="m 541.59998,845 h 228.39999 v 30 H 541.59998 Z"
       class="st4"
       style="fill:#373f4a"
       id="path400" />
    <g
       id="g412">
      <path
         class="st1"
         d="m 1055,705.8 v -147 c 0,-5.5 4.5,-10 10,-10 h 233.9 c 5.5,0 10,4.5 10,10 v 147 c 0,5.5 -4.5,10 -10,10 H 1065 c -5.5,0 -10,-4.4 -10,-10 z"
         style="fill:#565656;fill-opacity:1"
         id="path402" />
      <path
         class="st20"
         d="m 1035,685.8 v -147 c 0,-5.5 4.5,-10 10,-10 h 233.9 c 5.5,0 10,4.5 10,10 v 147 c 0,5.5 -4.5,10 -10,10 H 1045 c -5.5,0 -10,-4.4 -10,-10 z"
         style="fill:#afd146"
         id="path404" />
      <path
         d="m 1035,564.5 h 253.9 V 587 H 1035 Z"
         class="st25"
         style="fill:#282828;fill-opacity:0.86"
         id="path406" />
      <path
         d="M 1262.9,654 A 15.9,15.9 0 0 1 1247,669.9 15.9,15.9 0 0 1 1231.1,654 15.9,15.9 0 0 1 1247,638.1 15.9,15.9 0 0 1 1262.9,654 Z"
         class="st25"
         style="fill:#fcdf31;fill-opacity:1"
         id="path408" />
      <path
         d="m 1247,654 a 15.9,15.9 0 0 1 -15.9,15.9 15.9,15.9 0 0 1 -15.9,-15.9 15.9,15.9 0 0 1 15.9,-15.9 15.9,15.9 0 0 1 15.9,15.9 z"
         class="st11"
         style="fill:#f7091d;fill-opacity:1"
         id="path410" />
    </g>
    <path
       class="st27"
       d="m 741.4,693.4 -47.5,-12.7 29.5,110.1 2.4,-0.6 22.6,-84.5 c 1.5,-5.4 -1.7,-10.9 -7,-12.3 z"
       style="fill:#035c7f"
       id="path414" />
    <path
       d="M 711.29999,745.5 736,752.09998 l 5.90002,-21.69996 -37.30004,-10 z"
       class="st28"
       style="fill:#eac736"
       id="path416" />
    <g
       id="g562">
      <path
         d="M 750.40002,541.20001 H 909.50003 V 783.80002 H 750.40002 Z"
         transform="matrix(-0.2588,-0.9659,0.9659,-0.2588,404.8788,1635.7058)"
         class="st8"
         style="fill:#fef2b7"
         id="path418" />
      <path
         d="M 781.29999,480.89999 692.29999,617 926.59998,554.29999 Z"
         class="st22"
         style="fill:#ede1b0"
         id="path420" />
      <path
         d="M 837.5,690.40002 692.29999,617 926.59998,554.29999 Z"
         class="st24"
         style="fill:#c9c09b"
         id="path422" />
      <g
         id="g466">
        <path
           class="st2"
           d="m 757.4,659.6 c -29.3,0 -53.2,-23.8 -53.2,-53.2 0,-29.3 23.8,-53.2 53.2,-53.2 29.3,0 53.2,23.8 53.2,53.2 0,29.4 -23.9,53.2 -53.2,53.2 z"
           style="fill:#ffc42b"
           id="path424" />
        <path
           d="m 802.80003,606.40002 a 45.400002,45.400002 0 0 1 -45.40001,45.40001 45.400002,45.400002 0 0 1 -45.4,-45.40001 45.400002,45.400002 0 0 1 45.4,-45.4 45.400002,45.400002 0 0 1 45.40001,45.4 z"
           transform="matrix(0.8507,-0.5257,0.5257,0.8507,-205.7036,488.7782)"
           class="st3"
           style="fill:#fcdf42"
           id="path426" />
        <path
           d="m 787.40002,606.40002 a 30,30 0 0 1 -30,30 30,30 0 0 1 -30,-30 30,30 0 0 1 30,-30 30,30 0 0 1 30,30 z"
           transform="matrix(0.7071,-0.7071,0.7071,0.7071,-206.9725,713.2092)"
           class="st2"
           style="fill:#ffc42b"
           id="path428" />
        <g
           id="g432">
          <path
             class="st2"
             d="m 802.9,608.4 h -15.5 c -1.1,0 -1.9,-0.9 -1.9,-1.9 0,-1 0.9,-1.9 1.9,-1.9 h 15.5 c 1.1,0 1.9,0.9 1.9,1.9 0,1 -0.9,1.9 -1.9,1.9 z"
             style="fill:#ffc42b"
             id="path430" />
        </g>
        <g
           id="g436">
          <path
             class="st2"
             d="M 727.5,608.4 H 712 c -1.1,0 -1.9,-0.9 -1.9,-1.9 0,-1 0.9,-1.9 1.9,-1.9 h 15.5 c 1.1,0 1.9,0.9 1.9,1.9 0,1 -0.9,1.9 -1.9,1.9 z"
             style="fill:#ffc42b"
             id="path434" />
        </g>
        <g
           id="g440">
          <path
             class="st2"
             d="m 757.4,578.4 c -1.1,0 -1.9,-0.9 -1.9,-1.9 V 561 c 0,-1.1 0.9,-1.9 1.9,-1.9 1.1,0 1.9,0.9 1.9,1.9 v 15.5 c 0.1,1 -0.8,1.9 -1.9,1.9 z"
             style="fill:#ffc42b"
             id="path438" />
        </g>
        <g
           id="g444">
          <path
             class="st2"
             d="m 757.4,653.8 c -1.1,0 -1.9,-0.9 -1.9,-1.9 v -15.5 c 0,-1.1 0.9,-1.9 1.9,-1.9 1.1,0 1.9,0.9 1.9,1.9 v 15.5 c 0.1,1 -0.8,1.9 -1.9,1.9 z"
             style="fill:#ffc42b"
             id="path442" />
        </g>
        <g
           id="g448">
          <path
             class="st2"
             d="m 789.6,640.5 c -0.5,0 -1,-0.2 -1.4,-0.6 L 777.3,629 c -0.8,-0.8 -0.8,-2 0,-2.7 0.8,-0.8 2,-0.8 2.7,0 l 10.9,10.9 c 0.8,0.8 0.8,2 0,2.7 -0.4,0.4 -0.8,0.6 -1.3,0.6 z"
             style="fill:#ffc42b"
             id="path446" />
        </g>
        <g
           id="g452">
          <path
             class="st2"
             d="m 736.2,587.2 c -0.5,0 -1,-0.2 -1.4,-0.6 l -10.9,-10.9 c -0.8,-0.8 -0.8,-2 0,-2.7 0.8,-0.8 2,-0.8 2.7,0 l 10.9,10.9 c 0.8,0.8 0.8,2 0,2.7 -0.3,0.4 -0.8,0.6 -1.3,0.6 z"
             style="fill:#ffc42b"
             id="path450" />
        </g>
        <g
           id="g456">
          <path
             class="st2"
             d="m 778.6,587.2 c -0.5,0 -1,-0.2 -1.4,-0.6 -0.8,-0.8 -0.8,-2 0,-2.7 L 788.1,573 c 0.8,-0.8 2,-0.8 2.7,0 0.8,0.8 0.8,2 0,2.7 L 780,586.6 c -0.4,0.4 -0.9,0.6 -1.4,0.6 z"
             style="fill:#ffc42b"
             id="path454" />
        </g>
        <g
           id="g460">
          <path
             class="st2"
             d="m 725.3,640.5 c -0.5,0 -1,-0.2 -1.4,-0.6 -0.8,-0.8 -0.8,-2 0,-2.7 l 10.9,-10.9 c 0.8,-0.8 2,-0.8 2.7,0 0.8,0.8 0.8,2 0,2.7 l -10.9,10.9 c -0.3,0.4 -0.8,0.6 -1.3,0.6 z"
             style="fill:#ffc42b"
             id="path458" />
        </g>
        <g
           id="g464">
          <path
             class="st3"
             d="m 763.7,613.1 c 0,3.8 -1.5,5.9 -4.4,6.5 v 4 h -2.5 v -3.9 c -1.8,-0.1 -3.2,-0.7 -4.1,-1.9 -1,-1.1 -1.4,-3.1 -1.4,-5.7 v -1.7 h 4.3 v 2.1 c 0,2.3 0.6,3.5 1.8,3.5 0.6,0 1.1,-0.2 1.4,-0.6 0.3,-0.4 0.4,-1.1 0.4,-2.1 0,-1.7 -0.8,-3.4 -2.4,-4.8 0,0 -0.4,-0.4 -1.1,-1 -0.7,-0.6 -1.1,-1 -1.2,-1.1 -2.1,-2 -3.2,-4.3 -3.2,-6.9 0,-4 1.8,-6.2 5.5,-6.4 v -3.8 h 2.5 v 4 c 1.1,0.3 2,0.8 2.7,1.6 0.9,1.1 1.4,3.1 1.4,5.7 0,0 0,0.1 0,0.1 v 1.4 h -4.1 v -1.7 c 0,-1.2 -0.1,-2.1 -0.4,-2.6 -0.3,-0.6 -0.7,-0.9 -1.3,-0.9 -0.6,0 -1.1,0.2 -1.4,0.5 -0.3,0.4 -0.4,1 -0.4,1.8 0,1.4 0.6,2.7 1.8,3.8 l 2.5,2.2 c 2.3,2.5 3.6,5.1 3.6,7.9 z"
             style="fill:#fcdf42"
             id="path462" />
        </g>
      </g>
      <g
         id="g510">
        <path
           class="st2"
           d="m 866,622.6 c -29.3,0 -53.2,-23.8 -53.2,-53.2 0,-29.3 23.8,-53.2 53.2,-53.2 29.3,0 53.2,23.8 53.2,53.2 0,29.4 -23.9,53.2 -53.2,53.2 z"
           style="fill:#ffc42b"
           id="path468" />
        <path
           d="M 911.4,569.5 A 45.400002,45.400002 0 0 1 866,614.9 45.400002,45.400002 0 0 1 820.6,569.5 45.400002,45.400002 0 0 1 866,524.1 45.400002,45.400002 0 0 1 911.4,569.5 Z"
           transform="matrix(0.8507,-0.5257,0.5257,0.8507,-170.0452,540.3475)"
           class="st3"
           style="fill:#fcdf42"
           id="path470" />
        <path
           d="m 896,569.5 a 30,30 0 0 1 -30,30 30,30 0 0 1 -30,-30 30,30 0 0 1 30,-30 30,30 0 0 1 30,30 z"
           transform="matrix(0.7071,-0.7071,0.7071,0.7071,-149.0193,779.167)"
           class="st2"
           style="fill:#ffc42b"
           id="path472" />
        <g
           id="g476">
          <path
             class="st2"
             d="M 911.5,571.4 H 896 c -1.1,0 -1.9,-0.9 -1.9,-1.9 0,-1.1 0.9,-1.9 1.9,-1.9 h 15.5 c 1.1,0 1.9,0.9 1.9,1.9 0,1 -0.9,1.9 -1.9,1.9 z"
             style="fill:#ffc42b"
             id="path474" />
        </g>
        <g
           id="g480">
          <path
             class="st2"
             d="m 836,571.4 h -15.5 c -1.1,0 -1.9,-0.9 -1.9,-1.9 0,-1.1 0.9,-1.9 1.9,-1.9 H 836 c 1.1,0 1.9,0.9 1.9,1.9 0.1,1 -0.8,1.9 -1.9,1.9 z"
             style="fill:#ffc42b"
             id="path478" />
        </g>
        <g
           id="g484">
          <path
             class="st2"
             d="m 866,541.4 c -1.1,0 -1.9,-0.9 -1.9,-1.9 V 524 c 0,-1.1 0.9,-1.9 1.9,-1.9 1,0 1.9,0.9 1.9,1.9 v 15.5 c 0.1,1.1 -0.8,1.9 -1.9,1.9 z"
             style="fill:#ffc42b"
             id="path482" />
        </g>
        <g
           id="g488">
          <path
             class="st2"
             d="m 866,616.8 c -1.1,0 -1.9,-0.9 -1.9,-1.9 v -15.5 c 0,-1.1 0.9,-1.9 1.9,-1.9 1,0 1.9,0.9 1.9,1.9 v 15.5 c 0.1,1.1 -0.8,1.9 -1.9,1.9 z"
             style="fill:#ffc42b"
             id="path486" />
        </g>
        <g
           id="g492">
          <path
             class="st2"
             d="m 898.2,603.5 c -0.5,0 -1,-0.2 -1.4,-0.6 L 885.9,592 c -0.8,-0.8 -0.8,-2 0,-2.7 0.8,-0.8 2,-0.8 2.7,0 l 10.9,10.9 c 0.8,0.8 0.8,2 0,2.7 -0.4,0.4 -0.9,0.6 -1.3,0.6 z"
             style="fill:#ffc42b"
             id="path490" />
        </g>
        <g
           id="g496">
          <path
             class="st2"
             d="m 844.8,550.2 c -0.5,0 -1,-0.2 -1.4,-0.6 l -10.9,-10.9 c -0.8,-0.8 -0.8,-2 0,-2.7 0.8,-0.8 2,-0.8 2.7,0 l 10.9,10.9 c 0.8,0.8 0.8,2 0,2.7 -0.3,0.4 -0.8,0.6 -1.3,0.6 z"
             style="fill:#ffc42b"
             id="path494" />
        </g>
        <g
           id="g500">
          <path
             class="st2"
             d="m 887.2,550.2 c -0.5,0 -1,-0.2 -1.4,-0.6 -0.8,-0.8 -0.8,-2 0,-2.7 L 896.7,536 c 0.8,-0.8 2,-0.8 2.7,0 0.8,0.8 0.8,2 0,2.7 l -10.9,10.9 c -0.3,0.4 -0.8,0.6 -1.3,0.6 z"
             style="fill:#ffc42b"
             id="path498" />
        </g>
        <g
           id="g504">
          <path
             class="st2"
             d="m 833.9,603.5 c -0.5,0 -1,-0.2 -1.4,-0.6 -0.8,-0.8 -0.8,-2 0,-2.7 l 10.9,-10.9 c 0.8,-0.8 2,-0.8 2.7,0 0.8,0.8 0.8,2 0,2.7 l -10.8,11 c -0.4,0.3 -0.9,0.5 -1.4,0.5 z"
             style="fill:#ffc42b"
             id="path502" />
        </g>
        <g
           id="g508">
          <path
             class="st3"
             d="m 872.3,576.1 c 0,3.8 -1.5,5.9 -4.4,6.5 v 4 h -2.5 v -3.9 c -1.8,-0.1 -3.2,-0.7 -4.1,-1.9 -1,-1.1 -1.4,-3.1 -1.4,-5.7 v -1.7 h 4.3 v 2.1 c 0,2.3 0.6,3.5 1.8,3.5 0.6,0 1.1,-0.2 1.4,-0.6 0.3,-0.4 0.4,-1.1 0.4,-2.1 0,-1.7 -0.8,-3.4 -2.4,-4.8 0,0 -0.4,-0.4 -1.1,-1 -0.7,-0.6 -1.1,-1 -1.2,-1.1 -2.1,-2 -3.2,-4.3 -3.2,-6.9 0,-4 1.8,-6.2 5.5,-6.4 v -3.8 h 2.5 v 4 c 1.1,0.3 2,0.8 2.7,1.6 0.9,1.1 1.4,3.1 1.4,5.7 0,0 0,0.1 0,0.1 v 1.4 h -4.1 v -1.7 c 0,-1.2 -0.1,-2.1 -0.4,-2.6 -0.3,-0.6 -0.7,-0.9 -1.3,-0.9 -0.6,0 -1.1,0.2 -1.4,0.5 -0.3,0.4 -0.4,1 -0.4,1.8 0,1.4 0.6,2.7 1.8,3.8 l 2.5,2.2 c 2.3,2.5 3.6,5.1 3.6,7.9 z"
             style="fill:#fcdf42"
             id="path506" />
        </g>
      </g>
      <g
         id="g554">
        <path
           class="st2"
           d="m 835.7,692.8 c -29.3,0 -53.2,-23.8 -53.2,-53.2 0,-29.3 23.8,-53.2 53.2,-53.2 29.3,0 53.2,23.8 53.2,53.2 0,29.4 -23.9,53.2 -53.2,53.2 z"
           style="fill:#ffc42b"
           id="path512" />
        <path
           d="m 881.10001,639.70001 a 45.400002,45.400002 0 0 1 -45.4,45.4 45.400002,45.400002 0 0 1 -45.4,-45.4 45.400002,45.400002 0 0 1 45.4,-45.4 45.400002,45.400002 0 0 1 45.4,45.4 z"
           transform="matrix(0.8507,-0.5257,0.5257,0.8507,-211.4836,534.8942)"
           class="st3"
           style="fill:#fcdf42"
           id="path514" />
        <path
           d="m 865.70001,639.70001 a 30,30 0 0 1 -30,30 30,30 0 0 1 -30,-30 30,30 0 0 1 30,-30 30,30 0 0 1 30,30 z"
           transform="matrix(0.7071,-0.7071,0.7071,0.7071,-207.5435,778.2928)"
           class="st2"
           style="fill:#ffc42b"
           id="path516" />
        <g
           id="g520">
          <path
             class="st2"
             d="m 881.1,641.6 h -15.5 c -1.1,0 -1.9,-0.9 -1.9,-1.9 0,-1 0.9,-1.9 1.9,-1.9 h 15.5 c 1.1,0 1.9,0.9 1.9,1.9 0,1 -0.8,1.9 -1.9,1.9 z"
             style="fill:#ffc42b"
             id="path518" />
        </g>
        <g
           id="g524">
          <path
             class="st2"
             d="m 805.7,641.6 h -15.5 c -1.1,0 -1.9,-0.9 -1.9,-1.9 0,-1 0.9,-1.9 1.9,-1.9 h 15.5 c 1.1,0 1.9,0.9 1.9,1.9 0,1 -0.8,1.9 -1.9,1.9 z"
             style="fill:#ffc42b"
             id="path522" />
        </g>
        <g
           id="g528">
          <path
             class="st2"
             d="m 835.7,611.6 c -1.1,0 -1.9,-0.9 -1.9,-1.9 v -15.5 c 0,-1.1 0.9,-1.9 1.9,-1.9 1.1,0 1.9,0.9 1.9,1.9 v 15.5 c 0,1.1 -0.8,1.9 -1.9,1.9 z"
             style="fill:#ffc42b"
             id="path526" />
        </g>
        <g
           id="g532">
          <path
             class="st2"
             d="m 835.7,687 c -1.1,0 -1.9,-0.9 -1.9,-1.9 v -15.5 c 0,-1.1 0.9,-1.9 1.9,-1.9 1.1,0 1.9,0.9 1.9,1.9 v 15.5 c 0,1.1 -0.8,1.9 -1.9,1.9 z"
             style="fill:#ffc42b"
             id="path530" />
        </g>
        <g
           id="g536">
          <path
             class="st2"
             d="m 867.8,673.7 c -0.5,0 -1,-0.2 -1.4,-0.6 l -10.9,-10.9 c -0.8,-0.8 -0.8,-2 0,-2.7 0.8,-0.8 2,-0.8 2.7,0 l 10.9,10.9 c 0.8,0.8 0.8,2 0,2.7 -0.3,0.4 -0.8,0.6 -1.3,0.6 z"
             style="fill:#ffc42b"
             id="path534" />
        </g>
        <g
           id="g540">
          <path
             class="st2"
             d="m 814.5,620.4 c -0.5,0 -1,-0.2 -1.4,-0.6 l -10.9,-10.9 c -0.8,-0.8 -0.8,-2 0,-2.7 0.8,-0.8 2,-0.8 2.7,0 l 10.9,10.9 c 0.8,0.8 0.8,2 0,2.7 -0.3,0.4 -0.8,0.6 -1.3,0.6 z"
             style="fill:#ffc42b"
             id="path538" />
        </g>
        <g
           id="g544">
          <path
             class="st2"
             d="m 856.9,620.4 c -0.5,0 -1,-0.2 -1.4,-0.6 -0.8,-0.8 -0.8,-2 0,-2.7 l 10.9,-10.9 c 0.8,-0.8 2,-0.8 2.7,0 0.8,0.8 0.8,2 0,2.7 l -10.9,10.9 c -0.3,0.4 -0.8,0.6 -1.3,0.6 z"
             style="fill:#ffc42b"
             id="path542" />
        </g>
        <g
           id="g548">
          <path
             class="st2"
             d="m 803.6,673.7 c -0.5,0 -1,-0.2 -1.4,-0.6 -0.8,-0.8 -0.8,-2 0,-2.7 l 10.9,-10.9 c 0.8,-0.8 2,-0.8 2.7,0 0.8,0.8 0.8,2 0,2.7 l -10.9,10.9 c -0.3,0.4 -0.8,0.6 -1.3,0.6 z"
             style="fill:#ffc42b"
             id="path546" />
        </g>
        <g
           id="g552">
          <path
             class="st3"
             d="m 842,646.3 c 0,3.8 -1.5,5.9 -4.4,6.5 v 4 h -2.5 V 653 c -1.8,-0.1 -3.2,-0.7 -4.1,-1.9 -1,-1.1 -1.4,-3.1 -1.4,-5.7 v -1.7 h 4.3 v 2.1 c 0,2.3 0.6,3.5 1.8,3.5 0.6,0 1.1,-0.2 1.4,-0.6 0.3,-0.4 0.4,-1.1 0.4,-2.1 0,-1.7 -0.8,-3.4 -2.4,-4.8 0,0 -0.4,-0.4 -1.1,-1 -0.7,-0.6 -1.1,-1 -1.2,-1.1 -2.1,-2 -3.2,-4.3 -3.2,-6.9 0,-4 1.8,-6.2 5.5,-6.4 v -3.8 h 2.5 v 4 c 1.1,0.3 2,0.8 2.7,1.6 0.9,1.1 1.4,3.1 1.4,5.7 0,0 0,0.1 0,0.1 v 1.4 h -4.1 v -1.7 c 0,-1.2 -0.1,-2.1 -0.4,-2.6 -0.3,-0.6 -0.7,-0.9 -1.3,-0.9 -0.6,0 -1.1,0.2 -1.4,0.5 -0.3,0.4 -0.4,1 -0.4,1.8 0,1.4 0.6,2.7 1.8,3.8 l 2.5,2.2 c 2.3,2.4 3.6,5 3.6,7.8 z"
             style="fill:#fcdf42"
             id="path550" />
        </g>
      </g>
      <path
         d="M 692.29999,617 733.40002,770.79999 830,662.5 Z"
         class="st8"
         style="fill:#fef2b7"
         id="path556" />
      <path
         d="M 926.59998,554.29999 967.70001,708 830,662.5 Z"
         class="st26"
         style="fill:#dbd1a7"
         id="path558" />
      <path
         d="M 822.5,634.59998 733.40002,770.79999 967.70001,708 Z"
         class="st22"
         style="fill:#ede1b0"
         id="path560" />
    </g>
    <path
       class="st14"
       d="m 786,510.1 v 0 c -19.1,0 -34.6,-15.5 -34.6,-34.6 v -4.6"
       style="fill:none;stroke:#676b76;stroke-width:10;stroke-miterlimit:10"
       id="path564" />
    <path
       d="m 943.20001,579.29999 h 29.8 v 160.7 h -29.8 z"
       class="st4"
       style="fill:#373f4a"
       id="path566" />
  </g>
</svg>
