<?xml version="1.0" encoding="UTF-8" standalone="no"?>
<!-- Created with Inkscape (http://www.inkscape.org/) -->

<svg
   version="1.1"
   id="svg962"
   width="3119.3584"
   height="2313.7354"
   viewBox="0 0 3119.3584 2313.7354"
   sodipodi:docname="marlin_logo_copia.svg"
   inkscape:version="1.1.1 (3bf5ae0d25, 2021-09-20)"
   inkscape:export-filename="/home/alxdi4z/Downloads/marlin_logo.png"
   inkscape:export-xdpi="96"
   inkscape:export-ydpi="96"
   xmlns:inkscape="http://www.inkscape.org/namespaces/inkscape"
   xmlns:sodipodi="http://sodipodi.sourceforge.net/DTD/sodipodi-0.dtd"
   xmlns="http://www.w3.org/2000/svg"
   xmlns:svg="http://www.w3.org/2000/svg">
  <defs
     id="defs966">
    <inkscape:path-effect
       effect="skeletal"
       id="path-effect5563"
       is_visible="true"
       lpeversion="1"
       pattern="m 777.55188,1239.8368 c 0.71601,-6.1504 6.65769,-12.9502 13.26256,-15.1782 6.60483,-2.228 11.38423,0.9554 10.66831,7.1057 -0.71593,6.1503 -6.65742,12.95 -13.2623,15.178 -6.60502,2.2281 -11.3845,-0.9552 -10.66857,-7.1055 z"
       copytype="single_stretched"
       prop_scale="1"
       scale_y_rel="false"
       spacing="0"
       normal_offset="0"
       tang_offset="0"
       prop_units="false"
       vertical_pattern="false"
       hide_knot="false"
       fuse_tolerance="0" />
    <inkscape:path-effect
       effect="skeletal"
       id="path-effect4738"
       is_visible="true"
       lpeversion="1"
       pattern="m 1481.2351,-770.17576 c 5.0747,-9.09517 16.5749,-12.35819 25.67,-7.28354 9.0952,5.07466 12.3582,16.5748 7.2835,25.66997 -5.0746,9.09517 -16.5748,12.35819 -25.6699,7.28355 -9.0952,-5.07467 -12.3582,-16.57482 -7.2836,-25.66998 z"
       copytype="single_stretched"
       prop_scale="0.76758585"
       scale_y_rel="false"
       spacing="0"
       normal_offset="0"
       tang_offset="0"
       prop_units="false"
       vertical_pattern="false"
       hide_knot="false"
       fuse_tolerance="0" />
    <inkscape:path-effect
       effect="skeletal"
       id="path-effect17463"
       is_visible="true"
       lpeversion="1"
       pattern="m 3120.2391,2488.0977 c -0.2814,6.1854 -5.7296,13.3866 -12.1614,16.0741 -6.4318,2.6875 -11.4235,-0.1515 -11.1423,-6.3369 0.2813,-6.1854 5.7295,-13.3866 12.1613,-16.0741 6.4318,-2.6875 11.4235,0.1514 11.1424,6.3369 z"
       copytype="single_stretched"
       prop_scale="0.74733646"
       scale_y_rel="false"
       spacing="0"
       normal_offset="0"
       tang_offset="0"
       prop_units="false"
       vertical_pattern="false"
       hide_knot="false"
       fuse_tolerance="0" />
    <inkscape:path-effect
       effect="skeletal"
       id="path-effect17330"
       is_visible="true"
       lpeversion="1"
       pattern="m 3986.862,-26.655516 c 10.31,1.475217 17.4805,11.039891 16.0052,21.3500911 -1.4752,10.310184 -11.04,17.4806219 -21.3502,16.0052799 -10.3101,-1.4752796 -17.4806,-11.03995292 -16.0052,-21.350091 1.4752,-10.310184 11.04,-17.480622 21.3502,-16.00528 z"
       copytype="single_stretched"
       prop_scale="-0.18825476"
       scale_y_rel="false"
       spacing="0"
       normal_offset="0"
       tang_offset="0"
       prop_units="false"
       vertical_pattern="false"
       hide_knot="false"
       fuse_tolerance="0" />
    <inkscape:path-effect
       effect="skeletal"
       id="path-effect17311"
       is_visible="true"
       lpeversion="1"
       pattern="m 532.64579,-2970.5347 c 1.65497,-8.1619 10.57545,-0.7539 19.91159,16.5357 9.33618,17.2894 15.57008,37.9456 13.91512,46.1074 -1.65511,8.1617 -10.57552,0.7536 -19.9117,-16.5358 -9.3361,-17.2895 -15.57004,-37.9456 -13.91501,-46.1073 z"
       copytype="single_stretched"
       prop_scale="-0.18825476"
       scale_y_rel="false"
       spacing="0"
       normal_offset="0"
       tang_offset="0"
       prop_units="false"
       vertical_pattern="false"
       hide_knot="false"
       fuse_tolerance="0" />
    <inkscape:path-effect
       effect="skeletal"
       id="path-effect16894"
       is_visible="true"
       lpeversion="1"
       pattern="m 9.4231552,-3145.3275 c -1.44428,-13.3016 4.9889998,-12.951 14.3601198,0.7827 9.37105,13.7334 18.14877,35.675 19.59308,48.9765 1.44426,13.3016 -4.98913,12.951 -14.36015,-0.7826 -9.37112,-13.7335 -18.1488,-35.6751 -19.5930498,-48.9766 z"
       copytype="single_stretched"
       prop_scale="-0.18825476"
       scale_y_rel="false"
       spacing="0"
       normal_offset="0"
       tang_offset="0"
       prop_units="false"
       vertical_pattern="false"
       hide_knot="false"
       fuse_tolerance="0" />
    <inkscape:path-effect
       effect="skeletal"
       id="path-effect15008"
       is_visible="true"
       lpeversion="1"
       pattern="m 7.9496688,21.260619 c 0,-10.415095 8.4528312,-18.8679255 18.8679262,-18.8679255 10.415091,0 18.867921,8.4528305 18.867921,18.8679255 0,10.415095 -8.45283,18.867925 -18.867921,18.867925 -10.415095,0 -18.8679262,-8.45283 -18.8679262,-18.867925 z"
       copytype="single_stretched"
       prop_scale="-0.20869279"
       scale_y_rel="false"
       spacing="0"
       normal_offset="0"
       tang_offset="0"
       prop_units="false"
       vertical_pattern="false"
       hide_knot="false"
       fuse_tolerance="0" />
    <inkscape:path-effect
       effect="skeletal"
       id="path-effect11640"
       is_visible="true"
       lpeversion="1"
       pattern="m 8.0688965,9.3714977 c 0,-10.4150948 8.4528305,-18.867925 18.8679255,-18.867925 10.415094,0 18.867924,8.4528302 18.867924,18.867925 0,10.4150943 -8.45283,18.8679243 -18.867924,18.8679243 -10.415095,0 -18.8679255,-8.45283 -18.8679255,-18.8679243 z"
       copytype="single_stretched"
       prop_scale="-0.48421199"
       scale_y_rel="false"
       spacing="0"
       normal_offset="0"
       tang_offset="0"
       prop_units="false"
       vertical_pattern="false"
       hide_knot="false"
       fuse_tolerance="0" />
    <inkscape:path-effect
       effect="skeletal"
       id="path-effect9225"
       is_visible="true"
       lpeversion="1"
       pattern="M 0,18.867925 C 0,8.4528302 8.4528302,0 18.867925,0 c 10.415094,0 18.867924,8.4528302 18.867924,18.867925 0,10.415094 -8.45283,18.867924 -18.867924,18.867924 C 8.4528302,37.735849 0,29.283019 0,18.867925 Z"
       copytype="single_stretched"
       prop_scale="0.62444016"
       scale_y_rel="false"
       spacing="0"
       normal_offset="0"
       tang_offset="0"
       prop_units="false"
       vertical_pattern="false"
       hide_knot="false"
       fuse_tolerance="0" />
    <inkscape:path-effect
       effect="skeletal"
       id="path-effect8975"
       is_visible="true"
       lpeversion="1"
       pattern="M 0,18.867925 C 0,8.4528302 8.4528302,0 18.867925,0 c 10.415094,0 18.867924,8.4528302 18.867924,18.867925 0,10.415094 -8.45283,18.867924 -18.867924,18.867924 C 8.4528302,37.735849 0,29.283019 0,18.867925 Z"
       copytype="single_stretched"
       prop_scale="1"
       scale_y_rel="false"
       spacing="0"
       normal_offset="0"
       tang_offset="0"
       prop_units="false"
       vertical_pattern="false"
       hide_knot="false"
       fuse_tolerance="0" />
    <inkscape:path-effect
       effect="skeletal"
       id="path-effect8170"
       is_visible="true"
       lpeversion="1"
       pattern="m 1604.0726,939.4576 c 0.6288,-3.46813 3.7438,-5.26729 6.9531,-4.01599 3.2094,1.25132 5.3038,5.08159 4.6749,8.54971 -0.6288,3.46813 -3.7438,5.26729 -6.9531,4.01599 -3.2093,-1.25132 -5.3037,-5.08159 -4.6749,-8.54971 z"
       copytype="single_stretched"
       prop_scale="1"
       scale_y_rel="false"
       spacing="0"
       normal_offset="0"
       tang_offset="0"
       prop_units="false"
       vertical_pattern="false"
       hide_knot="false"
       fuse_tolerance="0" />
    <inkscape:path-effect
       effect="skeletal"
       id="path-effect7642"
       is_visible="true"
       lpeversion="1"
       pattern="m 2162.6886,346.74782 c 1.7135,-5.39797 3.5501,-7.73082 4.0991,-5.20737 0.549,2.52356 -0.396,8.95262 -2.1096,14.35057 -1.7137,5.39798 -3.5501,7.73081 -4.0991,5.20731 -0.5492,-2.52349 0.3959,-8.95254 2.1096,-14.35051 z"
       copytype="single_stretched"
       prop_scale="1"
       scale_y_rel="false"
       spacing="0"
       normal_offset="0"
       tang_offset="0"
       prop_units="false"
       vertical_pattern="false"
       hide_knot="false"
       fuse_tolerance="0" />
    <inkscape:path-effect
       effect="skeletal"
       id="path-effect7638"
       is_visible="true"
       lpeversion="1"
       pattern="M 0,18.867925 C 0,8.4528302 8.4528302,0 18.867925,0 c 10.415094,0 18.867924,8.4528302 18.867924,18.867925 0,10.415094 -8.45283,18.867924 -18.867924,18.867924 C 8.4528302,37.735849 0,29.283019 0,18.867925 Z"
       copytype="single_stretched"
       prop_scale="1"
       scale_y_rel="false"
       spacing="0"
       normal_offset="0"
       tang_offset="0"
       prop_units="false"
       vertical_pattern="false"
       hide_knot="false"
       fuse_tolerance="0" />
    <inkscape:path-effect
       effect="skeletal"
       id="path-effect5201"
       is_visible="true"
       lpeversion="1"
       pattern="M 0,18.867925 C 0,8.4528302 8.4528302,0 18.867925,0 c 10.415094,0 18.867924,8.4528302 18.867924,18.867925 0,10.415094 -8.45283,18.867924 -18.867924,18.867924 C 8.4528302,37.735849 0,29.283019 0,18.867925 Z"
       copytype="single_stretched"
       prop_scale="1"
       scale_y_rel="false"
       spacing="0"
       normal_offset="0"
       tang_offset="0"
       prop_units="false"
       vertical_pattern="false"
       hide_knot="false"
       fuse_tolerance="0" />
    <inkscape:path-effect
       effect="skeletal"
       id="path-effect5197"
       is_visible="true"
       lpeversion="1"
       pattern="M 0,18.867925 C 0,8.4528302 8.4528302,0 18.867925,0 c 10.415094,0 18.867924,8.4528302 18.867924,18.867925 0,10.415094 -8.45283,18.867924 -18.867924,18.867924 C 8.4528302,37.735849 0,29.283019 0,18.867925 Z"
       copytype="single_stretched"
       prop_scale="1"
       scale_y_rel="false"
       spacing="0"
       normal_offset="0"
       tang_offset="0"
       prop_units="false"
       vertical_pattern="false"
       hide_knot="false"
       fuse_tolerance="0" />
    <inkscape:path-effect
       effect="skeletal"
       id="path-effect5126"
       is_visible="true"
       lpeversion="1"
       pattern="M 0,18.867925 C 0,8.4528302 8.4528302,0 18.867925,0 c 10.415094,0 18.867924,8.4528302 18.867924,18.867925 0,10.415094 -8.45283,18.867924 -18.867924,18.867924 C 8.4528302,37.735849 0,29.283019 0,18.867925 Z"
       copytype="single_stretched"
       prop_scale="1"
       scale_y_rel="false"
       spacing="0"
       normal_offset="0"
       tang_offset="0"
       prop_units="false"
       vertical_pattern="false"
       hide_knot="false"
       fuse_tolerance="0" />
    <inkscape:path-effect
       effect="skeletal"
       id="path-effect4193"
       is_visible="true"
       lpeversion="1"
       pattern="M 0,18.867925 C 0,8.4528302 8.4528302,0 18.867925,0 c 10.415094,0 18.867924,8.4528302 18.867924,18.867925 0,10.415094 -8.45283,18.867924 -18.867924,18.867924 C 8.4528302,37.735849 0,29.283019 0,18.867925 Z"
       copytype="single_stretched"
       prop_scale="1"
       scale_y_rel="false"
       spacing="0"
       normal_offset="0"
       tang_offset="0"
       prop_units="false"
       vertical_pattern="false"
       hide_knot="false"
       fuse_tolerance="0" />
    <inkscape:path-effect
       effect="skeletal"
       id="path-effect3601"
       is_visible="true"
       lpeversion="1"
       pattern="m -421.03797,899.62669 c 0,-10.4151 8.45283,-18.86793 18.86792,-18.86793 10.4151,0 18.86793,8.45283 18.86793,18.86793 0,10.41509 -8.45283,18.86792 -18.86793,18.86792 -10.41509,0 -18.86792,-8.45283 -18.86792,-18.86792 z"
       copytype="single_stretched"
       prop_scale="0.60820901"
       scale_y_rel="false"
       spacing="0"
       normal_offset="0"
       tang_offset="0"
       prop_units="false"
       vertical_pattern="false"
       hide_knot="false"
       fuse_tolerance="0" />
    <inkscape:path-effect
       effect="skeletal"
       id="path-effect3597"
       is_visible="true"
       lpeversion="1"
       pattern="M 0,18.867925 C 0,8.4528302 8.4528302,0 18.867925,0 c 10.415094,0 18.867924,8.4528302 18.867924,18.867925 0,10.415094 -8.45283,18.867924 -18.867924,18.867924 C 8.4528302,37.735849 0,29.283019 0,18.867925 Z"
       copytype="single_stretched"
       prop_scale="1"
       scale_y_rel="false"
       spacing="0"
       normal_offset="0"
       tang_offset="0"
       prop_units="false"
       vertical_pattern="false"
       hide_knot="false"
       fuse_tolerance="0" />
    <inkscape:path-effect
       effect="skeletal"
       id="path-effect3320"
       is_visible="true"
       lpeversion="1"
       pattern="m 915.64016,1039.6972 c 4.74662,-6.6966 16.75595,-13.7343 26.80667,-15.7091 10.05073,-1.9748 14.35568,1.8574 9.60916,8.554 -4.74662,6.6966 -16.75596,13.7342 -26.80669,15.709 -10.05081,1.9749 -14.35556,-1.8573 -9.60914,-8.5539 z"
       copytype="single_stretched"
       prop_scale="1"
       scale_y_rel="false"
       spacing="0"
       normal_offset="0"
       tang_offset="0"
       prop_units="false"
       vertical_pattern="false"
       hide_knot="false"
       fuse_tolerance="0" />
    <inkscape:path-effect
       effect="skeletal"
       id="path-effect3316"
       is_visible="true"
       lpeversion="1"
       pattern="M 0,18.867925 C 0,8.4528302 8.4528302,0 18.867925,0 c 10.415094,0 18.867924,8.4528302 18.867924,18.867925 0,10.415094 -8.45283,18.867924 -18.867924,18.867924 C 8.4528302,37.735849 0,29.283019 0,18.867925 Z"
       copytype="single_stretched"
       prop_scale="1"
       scale_y_rel="false"
       spacing="0"
       normal_offset="0"
       tang_offset="0"
       prop_units="false"
       vertical_pattern="false"
       hide_knot="false"
       fuse_tolerance="0" />
    <inkscape:path-effect
       effect="skeletal"
       id="path-effect1702"
       is_visible="true"
       lpeversion="1"
       pattern="m 980.6659,965.30184 c 2.0494,-5.84291 9.3395,-11.17168 16.2726,-11.89458 6.9331,-0.7229 10.8967,3.43246 8.8474,9.27537 -2.0494,5.84291 -9.3395,11.17168 -16.2726,11.89458 -6.9331,0.7229 -10.8967,-3.43246 -8.8474,-9.27537 z"
       copytype="single_stretched"
       prop_scale="1"
       scale_y_rel="false"
       spacing="0"
       normal_offset="0"
       tang_offset="0"
       prop_units="false"
       vertical_pattern="false"
       hide_knot="false"
       fuse_tolerance="0" />
    <inkscape:path-effect
       effect="skeletal"
       id="path-effect1698"
       is_visible="true"
       lpeversion="1"
       pattern="m -24.733127,-15.005506 c 0,-10.415095 8.45283,-18.867925 18.8679252,-18.867925 10.415094,0 18.8679238,8.45283 18.8679238,18.867925 0,10.4150936 -8.4528298,18.8679236 -18.8679238,18.8679236 -10.4150952,0 -18.8679252,-8.45283 -18.8679252,-18.8679236 z"
       copytype="single_stretched"
       prop_scale="-0.24135332"
       scale_y_rel="false"
       spacing="0"
       normal_offset="0"
       tang_offset="0"
       prop_units="false"
       vertical_pattern="false"
       hide_knot="false"
       fuse_tolerance="0" />
    <inkscape:path-effect
       effect="skeletal"
       id="path-effect1694"
       is_visible="true"
       lpeversion="1"
       pattern="M 0,18.867925 C 0,8.4528302 8.4528302,0 18.867925,0 c 10.415094,0 18.867924,8.4528302 18.867924,18.867925 0,10.415094 -8.45283,18.867924 -18.867924,18.867924 C 8.4528302,37.735849 0,29.283019 0,18.867925 Z"
       copytype="single_stretched"
       prop_scale="0.84275839"
       scale_y_rel="false"
       spacing="0"
       normal_offset="0"
       tang_offset="0"
       prop_units="false"
       vertical_pattern="false"
       hide_knot="false"
       fuse_tolerance="0" />
    <inkscape:path-effect
       effect="skeletal"
       id="path-effect1690"
       is_visible="true"
       lpeversion="1"
       pattern="M 0,18.867925 C 0,8.4528302 8.4528302,0 18.867925,0 c 10.415094,0 18.867924,8.4528302 18.867924,18.867925 0,10.415094 -8.45283,18.867924 -18.867924,18.867924 C 8.4528302,37.735849 0,29.283019 0,18.867925 Z"
       copytype="single_stretched"
       prop_scale="1"
       scale_y_rel="false"
       spacing="0"
       normal_offset="0"
       tang_offset="0"
       prop_units="false"
       vertical_pattern="false"
       hide_knot="false"
       fuse_tolerance="0" />
    <inkscape:path-effect
       effect="skeletal"
       id="path-effect1686"
       is_visible="true"
       lpeversion="1"
       pattern="M 0,18.867925 C 0,8.4528302 8.4528302,0 18.867925,0 c 10.415094,0 18.867924,8.4528302 18.867924,18.867925 0,10.415094 -8.45283,18.867924 -18.867924,18.867924 C 8.4528302,37.735849 0,29.283019 0,18.867925 Z"
       copytype="single_stretched"
       prop_scale="1"
       scale_y_rel="false"
       spacing="0"
       normal_offset="0"
       tang_offset="0"
       prop_units="false"
       vertical_pattern="false"
       hide_knot="false"
       fuse_tolerance="0" />
    <inkscape:path-effect
       effect="powerstroke"
       id="path-effect1682"
       is_visible="true"
       lpeversion="1"
       offset_points="1,18.8679"
       not_jump="false"
       sort_points="true"
       interpolator_type="CubicBezierJohan"
       interpolator_beta="0.2"
       start_linecap_type="zerowidth"
       linejoin_type="extrp_arc"
       miter_limit="4"
       scale_width="1"
       end_linecap_type="zerowidth" />
    <inkscape:path-effect
       effect="skeletal"
       id="path-effect1003"
       is_visible="true"
       lpeversion="1"
       pattern="M 0,18.867925 C 0,8.4528302 8.4528302,0 18.867925,0 c 10.415094,0 18.867924,8.4528302 18.867924,18.867925 0,10.415094 -8.45283,18.867924 -18.867924,18.867924 C 8.4528302,37.735849 0,29.283019 0,18.867925 Z"
       copytype="single_stretched"
       prop_scale="1"
       scale_y_rel="false"
       spacing="0"
       normal_offset="0"
       tang_offset="0"
       prop_units="false"
       vertical_pattern="false"
       hide_knot="false"
       fuse_tolerance="0" />
  </defs>
  <sodipodi:namedview
     id="namedview964"
     pagecolor="#505050"
     bordercolor="#eeeeee"
     borderopacity="1"
     inkscape:pageshadow="0"
     inkscape:pageopacity="0"
     inkscape:pagecheckerboard="0"
     showgrid="false"
     inkscape:snap-smooth-nodes="false"
     inkscape:snap-midpoints="true"
     inkscape:object-nodes="false"
     inkscape:zoom="0.1506272"
     inkscape:rotation="-13"
     inkscape:cx="1673.1168"
     inkscape:cy="927.9457"
     inkscape:window-width="1920"
     inkscape:window-height="1046"
     inkscape:window-x="0"
     inkscape:window-y="34"
     inkscape:window-maximized="1"
     inkscape:current-layer="layer2"
     fit-margin-top="0"
     fit-margin-left="0"
     fit-margin-right="0"
     fit-margin-bottom="0" />
  <g
     inkscape:groupmode="layer"
     id="layer1"
     inkscape:label="background"
     style="opacity:1"
     sodipodi:insensitive="true"
     transform="translate(-499.92601,-712.11963)">
    <ellipse
       style="opacity:0.99695;fill:#393067;fill-opacity:1;stroke:none;stroke-width:38.889;stroke-linecap:round;stroke-linejoin:round;stroke-miterlimit:4;stroke-dasharray:none;stroke-opacity:1;paint-order:normal"
       id="path1075"
       ry="1156.8677"
       rx="1184.8198"
       cy="1868.9873"
       cx="2434.4646" />
  </g>
  <g
     inkscape:groupmode="layer"
     id="layer3"
     inkscape:label="marlin"
     sodipodi:insensitive="true"
     transform="translate(-499.92601,-712.11963)">
    <g
       id="g841"
       transform="matrix(0.8431688,0.5540664,-0.5540664,0.8431688,1082.2297,-907.26039)"
       style="opacity:0.996954">
      <g
         id="g5629">
        <path
           style="opacity:1;fill:#1e90ff;fill-opacity:1;stroke:none;stroke-width:5;stroke-linecap:butt;stroke-linejoin:miter;stroke-miterlimit:4;stroke-dasharray:none;stroke-opacity:1"
           d="m 710.94409,2121.8497 c 352.92291,-62.6325 686.44071,-198.4877 960.48791,-398.3283 200.9919,-210.0527 427.2864,-512.6654 592.3115,-591.1476 34.9759,-386.28277 159.0871,-542.09541 271.0971,-630.36357 50.7671,171.35558 293.7065,261.29433 516.1393,371.56038 54.1575,115.18682 103.5258,243.86149 169.4602,325.88149 12.9651,11.8685 39.5124,28.8649 63.149,44.9436 371.4597,241.8488 489.0179,565.1675 359.5765,625.1172 -366.4356,-41.645 -961.9888,-32.3632 -435.0472,252.3324 0,0 -53.3821,157.7187 -546.7915,-158.9892 -40.7795,-20.013 -43.3362,-24.551 -77.7368,-28.3355 -57.053,-6.2766 -156.6829,-18.2859 -369.6142,20.7442 -134.3737,24.6306 -326.761,46.9583 -608.3782,98.5508 -10.633,-14.9028 38.0694,-32.9695 212.2491,-176.3762 -361.4172,66.3099 -1131.538,359.1217 -1106.90271,244.4103 z"
           id="path17901"
           sodipodi:nodetypes="ccccccccccssccc" />
        <path
           style="fill:#393067;fill-opacity:1;stroke:none;stroke-width:1px;stroke-linecap:butt;stroke-linejoin:miter;stroke-opacity:1"
           d="m 2675.4665,849.68873 c 1.5211,2.45209 -12.1066,13.28614 -34.4678,33.80418 -21.4975,19.72551 -54.2101,51.92006 -80.2376,95.83108 -26.1072,37.17201 -47.7593,82.45571 -61.0956,136.28891 0,0 0,0 0,0 49.0655,-10.0655 101.7889,-18.9574 156.8388,-24.8853 67.3692,-7.2546 130.1134,-9.194 188.9619,-6.4174 92.5815,6.848 167.3178,23.6018 220.7428,40.2074 52.5488,16.3331 81.3568,30.9642 80.0904,34.676 -1.2664,3.7118 -32.2614,-3.9379 -85.2527,-14.1554 -54.411,-10.4913 -126.8529,-22.0573 -217.619,-25.9477 -60.7384,-4.2321 -125.975,-5.4887 -195.956,-2.5684 -57.2976,2.3911 -111.8419,7.3377 -162.5158,13.7726 0,0 0,-10e-5 0,-10e-5 6.8409,-66.6343 25.7303,-122.6718 51.5559,-166.51386 31.6744,-46.09071 69.1118,-76.21099 94.56,-93.03165 26.2722,-17.36532 42.8736,-23.51245 44.3947,-21.06036 z"
           id="path1684"
           inkscape:path-effect="#path-effect1686"
           inkscape:original-d="m 2675.4665,849.68873 c -112.2587,69.63526 -164.9028,164.24607 -183.1558,273.26507 252.3768,-41.7617 468.6569,-26.9941 653.9887,36.2398"
           sodipodi:nodetypes="ccc" />
        <path
           style="fill:#393067;fill-opacity:1;stroke:none;stroke-width:1px;stroke-linecap:butt;stroke-linejoin:miter;stroke-opacity:1"
           d="m 2635.7613,1604.2593 c -0.7802,-4.2886 46.2546,-17.5762 124.0509,-31.9815 76.5416,-14.1729 187.7541,-29.7373 308.2525,-28.8897 1.6577,0.012 3.3176,0.027 4.9796,0.046 79.1567,0.8788 150.6748,8.8339 214.3113,21.5085 67.3802,13.4269 121.7244,31.4074 159.1207,46.4425 37.2821,14.9892 57.4032,26.554 56.2942,29.3328 -1.1089,2.7788 -23.2428,-3.5454 -61.4843,-13.8133 -38.4912,-10.3349 -92.4996,-24.0972 -158.8272,-34.571 -62.7781,-9.9198 -132.1109,-16.22 -209.771,-17.0982 -1.6261,-0.018 -3.2501,-0.034 -4.8721,-0.048 -117.0226,-1.0105 -228.6658,10.8189 -304.7295,19.2359 -78.0607,8.6379 -126.5449,14.1246 -127.3251,9.836 z"
           id="path1692"
           inkscape:path-effect="#path-effect1694"
           inkscape:original-d="m 2635.7613,1604.2593 c 287.6506,-52.3296 575.8237,-79.7473 867.0092,36.4585"
           sodipodi:nodetypes="cc" />
        <path
           style="fill:#393067;fill-opacity:1;stroke:none;stroke-width:0.23993;stroke-linecap:butt;stroke-linejoin:miter;stroke-miterlimit:4;stroke-dasharray:none;stroke-opacity:1"
           d="m 2122.9843,1854.3512 c -12.0575,1.4194 -33.0969,1.0395 -63.3208,1.8074 -20.5735,0.521 -42.723,1.6015 -67.2989,3.7868 0,0 0,0 0,0 -21.0271,1.8672 -41.7631,4.3163 -63.3489,7.1171 -4.553,0.5907 -9.0336,1.1827 -13.3651,1.7596 -38.2245,5.0935 -64.082,8.7597 -82.2392,10.0077 -16.6481,1.1442 -21.6876,-0.3603 -10.5973,-5.0972 12.9566,-5.5339 48.134,-15.151 90.4786,-22.9296 24.082,-4.4247 50.632,-8.2519 78.0375,-10.2372 8.3897,-0.6067 16.7936,-1.0282 25.1893,-1.257 16.0135,-0.4365 30.6948,-0.1365 43.8561,0.6321 27.6553,1.6201 49.4214,5.2743 60.0645,8.0167 11.3399,2.922 12.5616,5.2142 2.5442,6.3936 z"
           id="path1700"
           inkscape:path-effect="#path-effect1702"
           inkscape:original-d="m 2129.2795,1856.4166 c -98.2105,-11.9 -163.8379,-8.8174 -313.0838,17.1329"
           sodipodi:nodetypes="cc" />
        <path
           style="opacity:0.996954;fill:#393067;fill-opacity:1;stroke:none;stroke-width:0.23993;stroke-linecap:butt;stroke-linejoin:miter;stroke-miterlimit:4;stroke-dasharray:none;stroke-opacity:1"
           d="m 2092.5078,1852.988 c -5.3306,4.3201 -30.2806,9.6024 -66.607,19.14 -19.6841,5.1664 -41.0246,11.2539 -64.6563,19.0046 0,0 0,0 0,0 -11.284,3.6992 -22.6424,7.6172 -34.3435,11.7994 -13.3774,4.7813 -26.4608,9.644 -38.3489,14.0878 0,0 0,0 0,0 -58.8473,22.0026 -99.757,37.257 -93.9812,28.7418 4.0842,-6.0213 39.1852,-26.3814 87.1697,-47.3116 21.3308,-9.3052 45.4584,-18.769 71.0573,-26.7978 0.9075,-0.2846 1.8131,-0.5663 2.7167,-0.845 24.5873,-7.5787 47.2816,-12.7299 67.2661,-16.0658 48.2981,-8.0518 74.7397,-5.8162 69.7271,-1.7534 z"
           id="path1700-6"
           inkscape:path-effect="#path-effect5563"
           inkscape:original-d="m 2093.8413,1856.9097 c -98.4261,9.9615 -161.7738,27.3833 -301.6756,85.4802"
           sodipodi:nodetypes="cc" />
        <path
           style="fill:#393067;fill-opacity:1;stroke:none;stroke-width:1px;stroke-linecap:butt;stroke-linejoin:miter;stroke-opacity:1"
           d="m 2366.4054,1117.1651 c -4.2771,-0.3291 -7.1443,-18.5408 -6.7726,-49.2178 0.3651,-30.1412 4.1584,-74.38077 16.2011,-122.8708 0,0 0,-10e-6 0,-10e-6 5.2073,-20.9806 12.1258,-42.95294 21.2876,-65.01241 7.445,-17.92576 15.8873,-34.74315 25.2468,-50.4073 19.0312,-31.70041 41.3451,-57.3706 61.3146,-76.73335 18.6927,-18.12276 37.6597,-33.25386 49.0891,-41.50348 12.3749,-8.93205 20.2669,-13.06384 22.3778,-11.02213 2.1298,2.05995 -1.7743,10.10758 -10.6967,22.62661 -10.8979,15.29097 -20.8575,26.52105 -39.0954,49.56282 -16.2832,20.58384 -35.1729,46.21746 -51.1396,75.38128 -8.0056,14.53948 -15.3984,30.00892 -22.246,46.54812 -8.409,20.31056 -15.3379,40.64835 -21.1894,60.1156 0,0 0,2e-5 0,2e-5 -13.2102,43.99029 -22.2313,88.30413 -28.4531,115.95133 -6.5957,29.309 -11.6471,46.9106 -15.9242,46.5815 z"
           id="path4191"
           inkscape:path-effect="#path-effect4193"
           inkscape:original-d="m 2366.4054,1117.1651 c 20.776,-270.05348 108.01,-333.29729 188.7444,-416.76727"
           sodipodi:nodetypes="cc" />
        <path
           style="fill:#393067;fill-opacity:1;stroke:none;stroke-width:1px;stroke-linecap:butt;stroke-linejoin:miter;stroke-opacity:1"
           d="m 2097.8322,1471.3352 c 0.024,-1.8623 8.1195,-3.729 22.7795,-4.3374 13.9736,-0.58 36.6145,0.076 61.517,6.4593 9.9737,2.5677 20.7221,6.2524 31.4319,11.6284 8.4218,4.2279 16.8919,9.6204 24.7917,16.4268 6.735,5.815 12.9717,12.6618 18.3056,20.4849 4.8962,7.2016 8.9539,15.1044 12.049,23.5203 3.6962,10.1582 6.0241,20.7852 7.1627,31.6587 0.7225,6.9004 0.9491,13.7372 0.7894,20.4119 -0.4222,19.298 -3.6789,37.665 -7.9466,54.2651 -4.9452,19.3114 -11.4001,37.0999 -17.8134,52.4915 -7.5944,18.2388 -15.6729,34.3967 -22.4016,46.7839 -12.9466,23.8398 -22.1142,36.9457 -24.478,35.8322 -2.3639,-1.1135 2.5347,-16.4963 11.757,-41.5948 4.6035,-12.5276 11.2037,-30.1955 17.0186,-47.785 5.0454,-15.2727 10.3025,-32.6777 14.2306,-50.8595 3.3725,-15.6856 6.0022,-32.5376 6.1598,-49.5085 0.041,-5.8552 -0.185,-11.7636 -0.7777,-17.6174 -0.9344,-9.2285 -2.748,-17.9962 -5.6629,-26.1488 -2.3812,-6.7519 -5.45,-13.0797 -9.135,-18.8095 -3.9935,-6.2329 -8.7612,-11.8357 -13.9637,-16.7258 -6.0999,-5.7476 -12.9364,-10.5775 -19.8831,-14.6198 -8.8483,-5.1485 -18.1521,-9.0909 -26.9685,-12.2094 -21.6254,-7.6706 -43.9597,-11.4195 -56.8636,-13.7084 -14.0497,-2.4921 -22.1231,-4.1764 -22.0987,-6.0387 z"
           id="path9223"
           inkscape:path-effect="#path-effect9225"
           inkscape:original-d="m 2097.8322,1471.3352 c 262.4946,3.433 147.683,227.5327 106.1872,315.6256"
           sodipodi:nodetypes="cc" />
        <path
           style="opacity:0.996954;fill:#393067;fill-opacity:1;stroke:none;stroke-width:1px;stroke-linecap:butt;stroke-linejoin:miter;stroke-opacity:1"
           d="m 2541.9335,1301.1766 c 12.3753,8.4236 26.6868,20.1857 40.6468,35.8601 18.0444,20.3027 34.7589,46.2261 47.3799,77.6926 0,0 0,0 0,0 10.9286,27.247 18.3371,56.9883 22.1599,88.5912 3.6564,30.1347 4.0303,60.7908 1.6242,91.4138 -2.3509,30.0212 -7.2702,59.2361 -14.253,87.1925 -2.3438,9.3944 -4.9064,18.5988 -7.6845,27.6044 -5.5353,17.9435 -11.6252,34.1224 -17.9443,48.629 -10.8443,24.9484 -21.819,43.7462 -32.6828,58.4765 0,0 0,0 0,0 -6.3849,8.6617 -12.296,15.2035 -17.7348,20.2181 -10.5491,9.7589 -17.8847,12.1351 -18.9642,10.9152 -0.5821,-0.6579 0.2786,-2.2772 2.2657,-5.0739 2.5795,-3.6304 4.4714,-5.9887 8.8868,-12.5731 0,0 0,0 0,0 2.9538,-4.4264 6.144,-9.5468 9.7576,-16.0401 0.99,-1.7788 1.9865,-3.615 3.0016,-5.5287 8.5867,-16.1922 16.5497,-34.4433 24.8982,-58.4485 7.734,-22.3066 14.6305,-46.8122 20.3107,-74.1104 5.4923,-26.434 9.5575,-54.3239 11.4845,-83.3402 1.8901,-28.5808 1.6796,-57.4381 -1.4025,-86.0735 -3.1286,-28.9636 -9.0113,-56.6718 -18.164,-82.6182 -1.8858,-5.3467 -3.901,-10.5942 -6.04,-15.7349 -9.7111,-23.3394 -21.1731,-42.5776 -32.7686,-58.2715 -27.7471,-37.6484 -53.79,-54.9259 -60.544,-62.4627 -3.2697,-3.6487 -2.4567,-5.0313 3.6987,-3.1804 5.628,1.6922 17.3143,6.8202 32.0681,16.8627 z"
           id="path9223-3"
           inkscape:path-effect="#path-effect4738"
           inkscape:original-d="m 2504.3421,1284.0194 c 227.5554,130.896 119.2654,507.0007 40.1059,563.7109"
           sodipodi:nodetypes="cc" />
      </g>
    </g>
  </g>
  <g
     inkscape:groupmode="layer"
     id="layer2"
     inkscape:label="agua"
     sodipodi:insensitive="true"
     transform="translate(-499.92601,-712.11963)" />
</svg>
