<?xml version="1.0" encoding="UTF-8" standalone="no"?>
<!-- Created with Inkscape (http://www.inkscape.org/) -->

<svg
   width="346.80289mm"
   height="366.12338mm"
   viewBox="0 0 346.80289 366.12338"
   version="1.1"
   id="svg5"
   sodipodi:docname="door.svg"
   inkscape:version="1.1.1 (3bf5ae0d25, 2021-09-20)"
   xmlns:inkscape="http://www.inkscape.org/namespaces/inkscape"
   xmlns:sodipodi="http://sodipodi.sourceforge.net/DTD/sodipodi-0.dtd"
   xmlns="http://www.w3.org/2000/svg"
   xmlns:svg="http://www.w3.org/2000/svg">
  <sodipodi:namedview
     id="namedview7"
     pagecolor="#505050"
     bordercolor="#eeeeee"
     borderopacity="1"
     inkscape:pageshadow="0"
     inkscape:pageopacity="0"
     inkscape:pagecheckerboard="0"
     inkscape:document-units="mm"
     showgrid="false"
     inkscape:zoom="0.36614057"
     inkscape:cx="279.94713"
     inkscape:cy="804.33589"
     inkscape:window-width="1920"
     inkscape:window-height="1046"
     inkscape:window-x="0"
     inkscape:window-y="34"
     inkscape:window-maximized="1"
     inkscape:current-layer="g832"
     fit-margin-top="0"
     fit-margin-left="0"
     fit-margin-right="0"
     fit-margin-bottom="0" />
  <defs
     id="defs2" />
  <g
     inkscape:label="Camada 1"
     inkscape:groupmode="layer"
     id="layer1"
     transform="translate(119.63191,81.284438)">
    <g
       id="g832"
       transform="matrix(0.03527778,0,0,-0.03527778,-432.30296,559.08802)">
      <path
         d="M 18664.316,7773.989 H 8892.5205 c -16.2384,0 -29.4047,24 -29.4047,53.6 0,29.6 13.1663,53.6 29.4047,53.6 h 9771.7955 c 16.255,0 29.432,-24 29.432,-53.6 0,-29.6 -13.177,-53.6 -29.432,-53.6"
         style="fill:#505050;fill-opacity:1;fill-rule:nonzero;stroke:none;stroke-width:0.734873"
         id="path1436" />
      <path
         d="m 17148.025,7881.089 h -4215.62 v 9698.4 h 4215.62 v -9698.4"
         style="fill:#1e2c7b;fill-opacity:1;fill-rule:nonzero;stroke:none"
         id="path1500" />
      <path
         d="m 14420.595,12541.489 c 0,0 -35.79,45.9 -74.23,63.4 l -25.65,-101 c 18.29,5.3 40.27,0.3 48.67,-4.8 12.59,-7.6 28.25,-34 40.85,-41.7 12.59,-7.6 35.63,-6.7 46.27,8.3 10.65,15 -35.91,75.8 -35.91,75.8"
         style="fill:#f8a492;fill-opacity:1;fill-rule:nonzero;stroke:none"
         id="path1542" />
      <path
         d="m 14586.355,7878.289 h -275.64 v 10274 h 275.64 v -10274"
         style="fill:#1e36ba;fill-opacity:1;fill-rule:nonzero;stroke:none"
         id="path1574" />
      <path
         d="m 14586.045,18152.189 c -0.02,-26.1 -1.89,-10269.8 -1.89,-10269.8 h 2551.57 v 9703.3 l -2549.68,566.5"
         style="fill:#1e90ff;fill-opacity:1;fill-rule:nonzero;stroke:none"
         id="path1576" />
      <path
         d="m 16732.545,14117.789 c -127.63,-24.4 -231.53,-117.5 -271.54,-239.2 l -1246.67,153.4 c -28.12,110.8 -108.34,201.9 -214.65,243.8 l 11.93,2660.8 c 134.74,17 246.54,110 290.86,234.6 l 1247.75,-265.2 c 24.77,-105.1 96.67,-194.3 194.13,-240.8 z m -92.75,2870.4 -1415.85,300.9 c -0.65,-144.6 -118.85,-256.3 -256.82,-256.3 -17.75,0 -35.83,1.8 -54.03,5.7 l -12.75,-2838.8 c 129.45,-15.9 226.51,-126.2 225.93,-256.6 l 1416.02,-174.3 c 0.66,143.4 117.53,256.3 256.91,256.3 10.51,0 21.15,-0.7 31.89,-2 l 12.56,2712.2 c -119.3,25.3 -204.42,130.9 -203.86,252.9"
         style="fill:#1e7cf9;fill-opacity:1;fill-rule:nonzero;stroke:none"
         id="path1578" />
      <path
         d="m 16734.705,8645.689 c -117.07,-33.7 -209.67,-126 -243.79,-243 l -200.17,0.4 c -33.84,116.9 -126.12,209.3 -242.95,243.4 v 3087.6 c 124.87,27.5 225.38,120.8 263.24,241.6 l 206.09,-17.7 c 30.18,-111.9 114.21,-203.7 223.01,-243.5 z m -130.7,3404.1 -375.74,32.4 c 0,-143.3 -116.51,-257.4 -256.99,-257.4 -7.42,0 -14.92,0.3 -22.47,1 v -3264.2 c 141.96,-0.2 256.92,-115.4 256.92,-257.3 l 370,-0.7 c 0.25,142 115.43,256.9 257.35,256.9 h 0.47 l 5.72,3232.5 c -133.25,11.4 -235.5,123.1 -235.26,256.8"
         style="fill:#1e7cf9;fill-opacity:1;fill-rule:nonzero;stroke:none"
         id="path1580" />
      <path
         d="m 15684.845,8647.989 c -117.22,-33.8 -209.82,-126.3 -243.79,-243.4 l -132.88,0.2 c -34.47,116 -126.74,207.8 -242.94,241.6 l -24.24,3172.7 c 65.97,14.6 126.53,47.8 175.41,97 41.38,41.7 71.19,91.8 87.86,146.4 l 157.05,-13.5 c 29.65,-113.3 113.18,-204.4 223.53,-243.7 z m -136.28,3492.8 -327.81,28.3 c 1.11,-144.1 -115.75,-259.4 -256.97,-259.4 -7.43,0 -14.93,0.3 -22.48,1 l 25.59,-3349.3 c 141.19,-0.2 255.82,-114.2 256.9,-255.4 l 302.21,-0.5 c 0,142.1 115.26,257.3 257.36,257.3 h 0.47 v 3321.6 c -133.09,11.5 -235.27,122.8 -235.27,256.4"
         style="fill:#1e7cf9;fill-opacity:1;fill-rule:nonzero;stroke:none"
         id="path1582" />
      <path
         d="m 15272.645,13011.889 c 0,-111.3 -46.54,-201.6 -103.96,-201.6 -57.41,0 -103.95,90.3 -103.95,201.6 0,111.4 46.54,201.6 103.95,201.6 57.42,0 103.96,-90.2 103.96,-201.6"
         style="fill:#bed1f9;fill-opacity:1;fill-rule:nonzero;stroke:none"
         id="path1584" />
      <path
         d="m 15369.985,13082.889 v -159 h -217.84 c -6.43,26.3 -10.02,55.6 -10.02,86.6 0,25.4 2.45,49.9 6.96,72.4 h 220.9"
         style="fill:#fa7167;fill-opacity:1;fill-rule:nonzero;stroke:none"
         id="path1586" />
      <path
         d="m 15519.995,13011.889 c 0,-167.8 -70.14,-303.8 -156.67,-303.8 -86.52,0 -156.66,136 -156.66,303.8 0,167.8 70.14,303.9 156.66,303.9 86.53,0 156.67,-136.1 156.67,-303.9"
         style="fill:#dde8fe;fill-opacity:1;fill-rule:nonzero;stroke:none"
         id="path1588" />
      <path
         d="m 15562.015,13011.889 c 0,-167.8 -70.14,-303.8 -156.66,-303.8 -86.52,0 -156.67,136 -156.67,303.8 0,167.8 70.15,303.9 156.67,303.9 86.52,0 156.66,-136.1 156.66,-303.9"
         style="fill:#dde8fe;fill-opacity:1;fill-rule:nonzero;stroke:none"
         id="path1590" />
    </g>
  </g>
</svg>
