<?xml version="1.0" encoding="UTF-8" standalone="no"?>
<!-- Created with Inkscape (http://www.inkscape.org/) -->

<svg
   version="1.1"
   id="svg2"
   xml:space="preserve"
   width="407.66089"
   height="407.29733"
   viewBox="0 0 407.66089 407.29733"
   sodipodi:docname="gift.svg"
   inkscape:version="1.1.1 (3bf5ae0d25, 2021-09-20)"
   xmlns:inkscape="http://www.inkscape.org/namespaces/inkscape"
   xmlns:sodipodi="http://sodipodi.sourceforge.net/DTD/sodipodi-0.dtd"
   xmlns="http://www.w3.org/2000/svg"
   xmlns:svg="http://www.w3.org/2000/svg"><defs
     id="defs6" /><sodipodi:namedview
     id="namedview4"
     pagecolor="#505050"
     bordercolor="#eeeeee"
     borderopacity="1"
     inkscape:pageshadow="0"
     inkscape:pageopacity="0"
     inkscape:pagecheckerboard="0"
     showgrid="false"
     inkscape:snap-smooth-nodes="false"
     inkscape:object-paths="true"
     inkscape:zoom="8.0000002"
     inkscape:cx="173.5"
     inkscape:cy="291.06249"
     inkscape:window-width="1920"
     inkscape:window-height="1001"
     inkscape:window-x="-9"
     inkscape:window-y="-9"
     inkscape:window-maximized="1"
     inkscape:current-layer="g10"
     inkscape:snap-text-baseline="true"
     fit-margin-top="0"
     fit-margin-left="0"
     fit-margin-right="0"
     fit-margin-bottom="0"
     inkscape:object-nodes="false"
     inkscape:snap-others="false" /><g
     id="g8"
     inkscape:groupmode="layer"
     inkscape:label="ink_ext_XXXXXX"
     transform="matrix(1.3333333,0,0,-1.3333333,-172.41842,407.29732)"><g
       id="g10"
       transform="scale(0.1)"><path
         d="m 3225.27,261.039 h 86.9297 v 2.5 H 3225.27 Z"
         style="fill:#eeeeee;fill-opacity:1;fill-rule:nonzero;stroke:none"
         id="path16" /><path
         d="M 4350.595,113.23 C 4350.595,50.6914 3666.1679,0 2821.8654,0 1977.5709,0 1293.1382,50.6914 1293.1382,113.23 c 0,62.54 684.4327,113.239 1528.7272,113.239 844.3025,0 1528.7296,-50.699 1528.7296,-113.239"
         style="fill:#3c3c3c;fill-opacity:1;fill-rule:nonzero;stroke:none;stroke-width:0.88795"
         id="path130" /><path
         d="m 3304.01,105.461 h -928.27 c -57.45,0 -99.95,46.57 -94.93,104.019 l 239.83,2741.22 c 5.02,57.46 55.67,104.03 113.12,104.03 h 928.28 c 57.45,0 99.95,-46.57 94.92,-104.03 L 3417.14,209.48 c -5.03,-57.449 -55.68,-104.019 -113.13,-104.019"
         style="fill:#4870c0;fill-opacity:1;fill-rule:nonzero;stroke:none"
         id="path182" /><path
         d="m 3304.01,105.461 h -100 c 57.45,0 108.1,46.57 113.13,104.019 l 239.82,2741.22 c 0.28,3.14 0.41,6.26 0.41,9.33 -0.08,53.08 -41.02,94.7 -95.33,94.7 h -828.28 v 0 h 928.28 c 54.31,0 95.25,-41.62 95.33,-94.7 0,-3.07 -0.13,-6.19 -0.41,-9.33 l -8.23,-94.06 -5.86,-67.01 -22.28,-254.72 -15.63,-178.58 -5.86,-67.02 -59.76,-683.06 -10.87,-124.19 -1.07,-12.24 -1.66,-19.03 -7.53,-86.08 -2.88,-32.86 -37.77,-431.729 -0.22,-2.5 -39.02,-445.992 -0.22,-2.5 -20.96,-239.649 c -5.03,-57.449 -55.68,-104.019 -113.13,-104.019"
         style="fill:#1e90ff;fill-opacity:1;fill-rule:nonzero;stroke:none"
         id="path184" /><path
         d="m 3204.01,105.461 h -928.27 c -57.45,0 -99.95,46.57 -94.93,104.019 l 239.83,2741.22 c 5.02,57.46 55.67,104.03 113.12,104.03 h 928.28 c 57.45,0 99.95,-46.57 94.92,-104.03 L 3317.14,209.48 c -5.03,-57.449 -55.68,-104.019 -113.13,-104.019"
         style="fill:#1d2a30;fill-opacity:1;fill-rule:nonzero;stroke:none"
         id="path186" /><path
         d="m 3204.01,105.461 h -928.27 c -57.45,0 -99.95,46.57 -94.93,104.019 l 239.83,2741.22 c 5.02,57.46 55.67,104.03 113.12,104.03 h 928.28 c 57.45,0 99.95,-46.57 94.92,-104.03 L 3317.14,209.48 c -5.03,-57.449 -55.68,-104.019 -113.13,-104.019"
         style="fill:#1e3f6c;fill-opacity:1;fill-rule:nonzero;stroke:none"
         id="path188" /><path
         d="M 3519.07,2955.93 3278.79,209.539 c -1.97,-22.59 -16.09,-40.141 -31.74,-40.141 H 2240.88 c -14.39,0 -23.82,16.071 -22,36.844 l 240.85,2752.988 c 1.57,17.98 12.1,33.71 24.57,33.71 413.0447,-6.8307 679.0897,-14.5683 1013.32,0 13.73,0 23.19,-17.21 21.45,-37.01"
         style="fill:#282828;fill-opacity:1;fill-rule:nonzero;stroke:none"
         id="path190"
         sodipodi:nodetypes="ccssccccc" /><path
         d="m 2582.86,2882.26 h -13.09 l 2.2,25.18 h 13.09 l -2.2,-25.18"
         style="fill:#00ff00;fill-opacity:1;fill-rule:nonzero;stroke:none"
         id="path194" /><path
         d="m 2561.53,2882.26 h -13.09 l 2.94,33.58 h 13.09 l -2.94,-33.58"
         style="fill:#00ff00;fill-opacity:1;fill-rule:nonzero;stroke:none"
         id="path196" /><path
         d="m 2540.2,2882.26 h -13.09 l 3.67,41.98 h 13.09 l -3.67,-41.98"
         style="fill:#00ff00;fill-opacity:1;fill-rule:nonzero;stroke:none"
         id="path198" /><path
         d="m 2518.87,2882.26 h -13.09 l 4.41,50.38 h 13.09 l -4.41,-50.38"
         style="fill:#00ff00;fill-opacity:1;fill-rule:nonzero;stroke:none"
         id="path200" /><path
         d="m 3393.51,2891.45 h -7.76 l 2.2,25.18 h 7.76 l -2.2,-25.18"
         style="fill:#00ff00;fill-opacity:1;fill-rule:nonzero;stroke:none"
         id="path202" /><path
         d="m 3459.84,2882.26 h -61.8 l 3.81,43.56 h 61.81 l -3.82,-43.56"
         style="fill:#00ff00;fill-opacity:1;fill-rule:nonzero;stroke:none"
         id="path204" /><path
         d="m 2989.6813,3009.5335 c -4.9855,0 -8.5182,5.8299 -7.8911,13.0257 0.6332,7.1958 5.1842,13.0319 10.1759,13.0319 4.9855,0 8.5182,-5.8361 7.8849,-13.0319 -0.627,-7.1958 -5.1779,-13.0257 -10.1697,-13.0257"
         style="fill:#000000;fill-opacity:0.47959;fill-rule:nonzero;stroke:none;stroke-width:0.620863"
         id="path206" /><path
         d="m 3301.17,464.832 h -0.04 l 63.18,722.148 48.29,551.96 -1.34,-15.52 -31.2,-356.49 -4.49,-51.3 -74.4,-850.798 m -1059.7,0 v 0 l 101.78,1163.248 h 0.02 L 2241.49,464.789 m 144.34,1649.841 61.71,705.21 -61.7,-705.2 c -0.01,0 -0.01,0 -0.01,-0.01 m 1063.53,44.45 24.72,282.54 -0.32,-3.6 -22.9,-261.9 -1.5,-17.04"
         style="fill:#c7d9f2;fill-opacity:1;fill-rule:nonzero;stroke:none"
         id="path210" /><path
         d="m 3301.13,464.832 v 0 l 63.18,722.148 -63.18,-722.148 m -915.29,1649.808 61.7,705.2 0.13,1.48 -61.83,-706.68 v 0"
         style="fill:#bdc1c2;fill-opacity:1;fill-rule:nonzero;stroke:none"
         id="path212" /><path
         d="m 2499.99,1871.62 28.07,-7.94 c 0,0 -42.09,-39.67 -22.45,-71.39 19.64,-31.74 -14.03,-59.51 -14.03,-59.51 l -25.26,23.8 c 0,0 22.45,23.8 11.23,55.54 -11.23,31.73 22.44,59.5 22.44,59.5"
         style="fill:#4870c0;fill-opacity:1;fill-rule:nonzero;stroke:none"
         id="path228" /><path
         d="m 2883.13,2097.25 28.07,-7.94 c 0,0 -42.09,-39.67 -22.45,-71.4 19.64,-31.74 -14.03,-59.5 -14.03,-59.5 l -25.26,23.8 c 0,0 22.45,23.8 11.23,55.54 -11.23,31.73 22.44,59.5 22.44,59.5"
         style="fill:#4870c0;fill-opacity:1;fill-rule:nonzero;stroke:none"
         id="path230" /><path
         d="m 3066.5,1591.14 44.89,-3.97 -5.61,-71.4 -53.31,19.84 14.03,55.53"
         style="fill:#4870c0;fill-opacity:1;fill-rule:nonzero;stroke:none"
         id="path250" /><path
         d="m 2797.86,1580.09 c 0,-16.43 -9.42,-29.75 -21.04,-29.75 -11.63,0 -21.05,13.32 -21.05,29.75 0,16.43 9.42,29.75 21.05,29.75 11.62,0 21.04,-13.32 21.04,-29.75"
         style="fill:#4870c0;fill-opacity:1;fill-rule:nonzero;stroke:none"
         id="path264" /><path
         d="m 2995.69,857.578 h -410.42 c -60.15,0 -104.56,47.641 -99.19,106.391 5.37,58.761 58.49,106.381 118.64,106.381 h 410.42 c 60.15,0 104.56,-47.62 99.19,-106.381 -5.37,-58.75 -58.49,-106.391 -118.64,-106.391"
         style="fill:#1e86ff;fill-opacity:1;fill-rule:nonzero;stroke:none"
         id="path328" /><path
         d="m 3227.92,1766.16 c -21.82,-254.79 -197.78,-461.35 -393.03,-461.35 -195.24,0 -335.84,206.56 -314.02,461.35 21.82,254.8 197.79,461.36 393.03,461.36 195.25,0 335.84,-206.56 314.02,-461.36"
         style="fill:#4870c0;fill-opacity:1;fill-rule:nonzero;stroke:none"
         id="path376" /><path
         d="m 2834.89,1304.81 c -162.51,0 -287.15,143.1 -311.8,338.01 l 65.78,32.33 c 9.84,-18.07 20.58,-33.41 28.79,-33.63 0.12,0 0.25,0 0.38,0 21.07,0 131.69,41.76 131.69,41.76 l 95.01,-13.76 -10.02,-33.58 41.36,-13.34 3.31,12.75 v 0 l 303.14,-52.73 c 21.76,51.92 36.84,108.7 43.62,168.32 0.29,2.63 0.57,5.26 0.82,7.92 0.32,3.19 0.63,6.39 0.9,9.59 1.51,17.59 2.25,34.95 2.26,52.03 0,1.18 0,2.37 -0.01,3.55 0.02,-2.11 0.03,-4.23 0.03,-6.34 -0.01,-16.92 -0.74,-34.11 -2.23,-51.53 -18.13,-211.7 -142.67,-390.1 -296.27,-444.39 -8.29,-2.93 -16.68,-5.5 -25.13,-7.69 -23.41,-6.08 -47.37,-9.27 -71.63,-9.27 m -129.41,535.45 -39.09,267.9 c 69.09,74.17 156.19,119.36 247.51,119.36 146.65,0 262.46,-116.53 301.79,-282.51 l -510.21,-104.75"
         style="fill:#464646;fill-opacity:1;fill-rule:nonzero;stroke:none"
         id="path378" /><path
         d="m 2328.75,1735.15 117.45,82.39 78.21,-43.55 224.34,41.99 -9.93,-86.56 -216.62,-8.9 c 0,0 -102.29,-62.16 -122.13,-65.33 -19.85,-3.19 -71.32,79.96 -71.32,79.96"
         style="fill:#f47272;fill-opacity:1;fill-rule:nonzero;stroke:none"
         id="path380" /><path
         d="m 3227.87,1768.45 c -0.5,-5.87 -1.11,-11.74 -1.72,-17.51 l -567,-43.32 -4.05,-0.3 0.1,18.62 0.41,72.66 0.2,31.49 11.94,2.42 548.68,112.66 c 12.46,-54.55 16.81,-114.17 11.44,-176.72"
         style="fill:#4870c0;fill-opacity:1;fill-rule:nonzero;stroke:none"
         id="path382" /><path
         d="m 2629.62,1833.43 38.68,7.24 -10.74,-156.56 -43.11,5.51 15.17,143.81"
         style="fill:#4870c0;fill-opacity:1;fill-rule:nonzero;stroke:none"
         id="path386" /><path
         d="m 2665.86,2111.79 -5.66,-0.74 -409.5,-28.87 -192.02,-93.97 -3.15,-1.67 62.57,-374.33 389.4,27.45 212.23,102.94 -53.87,369.19"
         style="fill:#dcdcdc;fill-opacity:1;fill-rule:nonzero;stroke:none"
         id="path390"
         sodipodi:nodetypes="ccccccccc" /><path
         d="m 2507.81,1635.3 -0.72,4.33 0.41,0.03 15.08,7.31 c 0.16,-1.39 -0.18,1.38 0,0 l -15.49,-7.34"
         style="fill:#9cacd3;fill-opacity:1;fill-rule:nonzero;stroke:none"
         id="path414"
         sodipodi:nodetypes="cccccc" /><path
         d="m 2523.09,1642.82 c -0.18,1.38 -0.35,2.76 -0.51,4.15 l 64.6,31.34 c 0.56,-1.06 1.12,-2.11 1.69,-3.16 l -65.78,-32.33"
         style="fill:#323232;fill-opacity:1;fill-rule:nonzero;stroke:none"
         id="path416" /><path
         d="m 2507.09,1639.63 -62.73,377.15 78.71,31.96 c 41.0142,-211.3452 53.1766,-239.5251 60.44,-305.84 l -21.24,-9.66 c 0,0 11.39,-29.42 24.91,-54.93 l -64.6,-31.34 -15.08,-7.31 -0.41,-0.03"
         style="fill:#000000;fill-opacity:0.33;fill-rule:nonzero;stroke:none"
         id="path418"
         sodipodi:nodetypes="ccccccccc" /><path
         d="m 2637.66,1767.52 c -14.4259,105.5788 -32.7521,223.5211 -43.86,313.58 l 72.06,30.69 49.26,-337.64 c -6.7409,5.6004 -15.864,12.9208 -19.07,15.84 -16.8721,0.5306 -40.2285,-17.2935 -58.39,-22.47"
         style="fill:#000000;fill-opacity:0.33;fill-rule:nonzero;stroke:none"
         id="path430"
         sodipodi:nodetypes="cccccc" /><path
         d="m 2055.53,1986.54 c 16.0273,8.0094 34.8637,17.1695 49.47,24.34 l 11.29,5.52 52.59,25.74 -13.84,-8.49 72.08,3.11 c 4.05,-0.44 8.27,-0.79 12.68,-1.06 -35.36,-5.72 -77.14,-14.32 -101.61,-25.71 v 0 0 l 71.92,-3.43 -18.08,-8.3 0.2,-1.09 -136.7,-10.63 m 212.43,16.52 -0.22,1.71 70.92,35.46 c 0.3,0.04 0.59,0.09 0.9,0.14 0,0 2.36,-6.81 2.36,-16.29 0,-2.59 -0.18,-5.39 -0.63,-8.3 v 0 0 l 48.62,7.69 v 0 c 0,0 -12.58,10.4 -24.18,19.27 l 157.24,5.95 -78.61,-31.91 -176.4,-13.72 m 52.89,62.13 c -8.48,5.05 -20.99,12.19 -35.41,19.44 l 71.84,5.06 c -7.24,-7.42 -14.6148,-16.4832 -20.2448,-24.5632 -6.6661,-0.4994 -8.9736,-0.5582 -14.5918,-0.9077 M 2477.38,2076.22 c 17.37,7.1 33.18,15.43 45.18,25.12 l 143.3,10.45 -72.06,-30.69 v 0 l -123.844,-7.8012"
         style="fill:#000000;fill-opacity:0.14;fill-rule:nonzero;stroke:none"
         id="path448"
         sodipodi:nodetypes="cccccccsccccccccccssccccccccccccccccccc" /><path
         d="m 2213.1,2063.78 c -0.05,0.02 -0.1,0.03 -0.14,0.05 l 36.54,17.77 c 0.01,0 0,0 0.01,0 l -36.41,-17.82"
         style="fill:#e9e9e8;fill-opacity:1;fill-rule:nonzero;stroke:none"
         id="path450" /><path
         d="m 2228.76,2058.7 c -5.47,1.57 -10.85,3.33 -15.8,5.13 l 36.55,17.77 c 17.02,-5.99 36.124,-13.4382 49.754,-18.9282 l -69.569,-4.2392 m 170.005,12.3174 51.07,25.53 -53.35,-3.76 -12.59,-5.78 c 2.4,1.78 4.87,3.58 7.4,5.42 l 77.51,5.46 c -19.22,-9.68 -40.83,-18.92 -61.05,-26.24 l -8.99,-0.63"
         style="fill:#000000;fill-opacity:0.32;fill-rule:nonzero;stroke:none"
         id="path452"
         sodipodi:nodetypes="ccccccccccccc" /><path
         d="m 2646.68,1702.64 -52.88,378.46 -402.19,-25.02 -36.57,-22.43 367.93,15.04 73.15,-368.69 50.56,22.64"
         style="fill:#ff0000;fill-opacity:0.89;fill-rule:nonzero;stroke:none"
         id="path454"
         sodipodi:nodetypes="ccccccc" /><path
         d="m 2450.77,2096.28 -183.03,-91.51 49.22,-378.55 -58.21,-4.1 -66.72,376.14 205.39,94.26 53.35,3.76"
         style="fill:#ff0000;fill-opacity:1;fill-rule:nonzero;stroke:none"
         id="path456" /><path
         d="m 2523.06,2048.28 -0.09,0.41 0.1,0.05 0.09,-0.42 -0.1,-0.04"
         style="fill:#182124;fill-opacity:1;fill-rule:nonzero;stroke:none"
         id="path458" /><path
         d="m 2583.51,1742.9 -6.66,33.65 0.12,0.11 6.68,-33.7 -0.14,-0.06 m -13.32,67.3 -19.68,99.41 0.08,0.24 19.7,-99.45 -0.1,-0.2"
         style="fill:#151a1c;fill-opacity:1;fill-rule:nonzero;stroke:none"
         id="path460" /><path
         d="m 2576.85,1776.55 -6.66,33.65 0.1,0.2 6.68,-33.74 -0.12,-0.11"
         style="fill:#2b3236;fill-opacity:1;fill-rule:nonzero;stroke:none"
         id="path462" /><path
         d="m 2547.63,1924.12 -24.57,124.16 0.1,0.04 24.6,-124.19 -0.13,-0.01"
         style="fill:#151a1c;fill-opacity:1;fill-rule:nonzero;stroke:none"
         id="path464" /><path
         d="m 2550.51,1909.61 -2.88,14.51 0.13,0.01 2.83,-14.28 -0.08,-0.24"
         style="fill:#2b3236;fill-opacity:1;fill-rule:nonzero;stroke:none"
         id="path466" /><path
         d="m 2583.65,1742.96 -6.68,33.7 -6.68,33.74 -19.7,99.45 -2.83,14.28 c -7.9162,39.9639 -16.3863,82.7243 -24.6,124.19 l -0.09,0.42 70.73,32.36 43.73,-313.63 -53.88,-24.51"
         style="fill:#be0000;fill-opacity:1;fill-rule:nonzero;stroke:none"
         id="path468"
         sodipodi:nodetypes="cccccccccc" /><path
         d="m 2258.75,1622.12 -18.29,102.84 0.05,0.02 18.24,-102.86 v 0 m -24.6,138.31 -18.44,103.72 0.09,0.11 18.41,-103.78 -0.06,-0.05 m -20.11,113.75 h -0.12 l -21.77,122.43 0.17,0.01 21.72,-122.44"
         style="fill:#1a252a;fill-opacity:1;fill-rule:nonzero;stroke:none"
         id="path470" /><path
         d="m 2240.46,1724.96 -6.31,35.47 0.06,0.05 6.3,-35.5 -0.05,-0.02"
         style="fill:#3d4b52;fill-opacity:1;fill-rule:nonzero;stroke:none"
         id="path472" /><path
         d="m 2258.75,1622.12 v 0 l -18.24,102.86 -6.3,35.5 -18.41,103.78 -1.76,9.92 -21.72,122.44 75.48,7.32 49.16,-377.72 -12.28,-0.86 -45.93,-3.24"
         style="fill:#ff0000;fill-opacity:1;fill-rule:nonzero;stroke:none"
         id="path476" /><path
         d="m 2345.08,2055.89 c 0,0 140.58,116.54 178.02,95.42 37.43,-21.12 -132.98,-96.5 -178.02,-95.42 m -172.61,39.02 c 10.24,19 153.55,-43.4 153.55,-43.4 -64.24,-13.64 -163.79,24.4 -153.55,43.4 m 159.97,-36.86 c 0,0 -115.12,74.75 -160.96,50.8 -36.32,-18.97 -27.4,-67.4 68.32,-73.15 -35.36,-5.72 -77.14,-14.32 -101.61,-25.71 l 72.14,-3.44 c 0,0 67.6,24.27 129.23,33.82 0,0 3.82,-11.04 1.73,-24.59 l 48.62,7.69 c 0,0 -15.42,12.75 -27.86,22.05 55.68,9.52 174.58,36 182.9,89.66 10.89,70.23 -158.91,11.95 -212.51,-77.13"
         style="fill:#4870c0;fill-opacity:1;fill-rule:nonzero;stroke:none"
         id="path478" /><path
         d="m 2210.33,2006.55 -72.14,3.44 c 24.47,11.39 66.25,19.99 101.61,25.71 v 0 0 c -4.41,0.27 -8.63,0.62 -12.68,1.06 -20.17,2.19 -35.86,6.45 -47.57,11.92 -19.26,8.99 -27.78,21.22 -27.8,32.82 -0.01,10.66 7.14,20.77 19.73,27.35 6.33,3.31 13.98,4.73 22.47,4.73 52.96,0 138.49,-55.53 138.49,-55.53 37,61.49 129.37,108.3 179.45,108.3 20.23,0 33.57,-7.64 33.56,-25.04 0,-1.92 -0.16,-3.97 -0.5,-6.13 -8.32,-53.66 -127.22,-80.14 -182.9,-89.66 v 0 0 c 12.44,-9.3 27.86,-22.05 27.86,-22.05 l -48.62,-7.69 c 0.45,2.91 0.63,5.71 0.63,8.3 0,9.48 -2.36,16.29 -2.36,16.29 -61.63,-9.55 -129.23,-33.82 -129.23,-33.82 m -38.6,85.48 c 0.03,-16.65 66.67,-43.41 124.21,-43.41 10.48,0 20.66,0.89 30.08,2.89 v 0 0 c 0,0 -107.95,47 -143.16,47 -5.36,0 -9.04,-1.09 -10.39,-3.6 -0.5,-0.92 -0.74,-1.88 -0.74,-2.88 m 173.35,-36.14 v 0 c 0.33,0 0.65,-0.01 0.99,-0.01 41.91,0 182.3,60.5 182.36,87.79 0,2.98 -1.67,5.57 -5.33,7.64 -3.12,1.76 -6.94,2.56 -11.33,2.56 -48.51,0 -166.69,-97.98 -166.69,-97.98 v 0"
         style="fill:#ff0000;fill-opacity:0.951619;fill-rule:nonzero;stroke:none;stroke-width:37.5;stroke-linejoin:round;stroke-miterlimit:4;stroke-dasharray:none;stroke-opacity:0"
         id="path480" /><path
         d="m 2562.27,1733.24 130.6,59.39 68.87,-57.19 h 228.23 l -25.68,-83.24 -214.56,31.08 c 0,0 -111.98,-42.27 -132.07,-41.76 -20.09,0.53 -55.39,91.72 -55.39,91.72"
         style="fill:#ff9272;fill-opacity:1;fill-rule:nonzero;stroke:none"
         id="path482" /><path
         d="m 3227.27,1762.28 c -0.31,-3.85 -0.71,-7.6 -1.12,-11.34 -6.78,-59.62 -21.86,-116.4 -43.62,-168.32 l -303.14,52.73 -3.34,0.61 5.47,28.23 13.76,71.26 4.05,21.05 11.44,0.21 316.5,5.57"
         style="fill:#ffc27d;fill-opacity:1;fill-rule:nonzero;stroke:none"
         id="path484" /><path
         d="m 2876.08,1774.51 h 39.34 l -39.34,-151.91 -41.36,13.34 41.36,138.57"
         style="fill:#4870c0;fill-opacity:1;fill-rule:nonzero;stroke:none"
         id="path486" /><path
         d="m 2876.08,1622.6 -41.36,13.34 41.36,138.57 h 39.34 l -4.61,-17.8 -31.42,-121.36 -3.31,-12.75"
         style="fill:#ffffff;fill-opacity:1;fill-rule:nonzero;stroke:none"
         id="path488" /><path
         d="M 2863.68,1735.28 H 2761 l -45.88,38.87 -9.64,66.11 510.21,104.75 c 8.95,-39.21 13.72,-81.04 13.7,-124.69 -0.01,-17.08 -0.75,-34.44 -2.26,-52.03 -0.27,-3.2 -0.58,-6.4 -0.9,-9.59 0.11,1.14 0.21,2.27 0.3,3.42 l -316.46,-5.57 4.61,17.8 h -39.34 l -11.66,-39.07"
         style="fill:#ffc27d;fill-opacity:1;fill-rule:nonzero;stroke:none"
         id="path384-5"
         sodipodi:nodetypes="ccccccccccccc" /><path
         d="m 2864.42,1735.44 -103.42,-0.16 -45.88,38.87 -9.64,66.11 510.95,104.91 c 8.95,-39.21 13.72,-81.04 13.7,-124.69 -0.01,-17.08 -0.75,-34.44 -2.26,-52.03 -0.27,-3.2 -0.58,-6.4 -0.9,-9.59 0.11,1.14 0.21,2.27 0.3,3.42 l -316.46,-5.57 4.61,17.8 h -39.34 l -11.66,-39.07"
         style="fill:#000000;fill-opacity:0.219866;fill-rule:nonzero;stroke:none"
         id="path384"
         sodipodi:nodetypes="ccccccccccccc" /><text
         xml:space="preserve"
         style="font-style:normal;font-variant:normal;font-weight:normal;font-stretch:normal;font-size:100px;line-height:1.25;font-family:Roboto;-inkscape-font-specification:'Roboto, Normal';font-variant-ligatures:normal;font-variant-caps:normal;font-variant-numeric:normal;font-variant-east-asian:normal;fill:#282828;fill-opacity:1;stroke:none;stroke-width:3.94523"
         x="2810.248"
         y="-815.35181"
         id="text42870"
         transform="matrix(0.85942699,-0.00792879,-0.18610848,-1.161849,0,0)"
         inkscape:transform-center-x="21.194926"
         inkscape:transform-center-y="0.19933461"><tspan
           sodipodi:role="line"
           id="tspan935"
           x="2810.248"
           y="-815.35181">Seu brinde</tspan></text></g></g></svg>
